SplineFontDB: 3.2
FontName: ConnectionII
FullName: Connection II
FamilyName: Connection II
Weight: Regular
Copyright: Copyright (c) 2019, Jasper, Robert Jablonski @ KineticPlasma Fonts, All Rights Reserved.
Version: 0.2
ItalicAngle: 0
UnderlinePosition: -150
UnderlineWidth: 50
Ascent: 800
Descent: 200
InvalidEm: 0
sfntRevision: 0x00003333
LayerCount: 2
Layer: 0 0 "Back" 1
Layer: 1 0 "Fore" 0
XUID: [1021 972 -621086993 13569616]
StyleMap: 0x0040
FSType: 0
OS2Version: 4
OS2_WeightWidthSlopeOnly: 0
OS2_UseTypoMetrics: 1
CreationTime: 1497824401
ModificationTime: 1716909251
PfmFamily: 17
TTFWeight: 400
TTFWidth: 5
LineGap: 90
VLineGap: 0
Panose: 2 0 5 3 0 0 0 0 0 0
OS2TypoAscent: 800
OS2TypoAOffset: 0
OS2TypoDescent: -200
OS2TypoDOffset: 0
OS2TypoLinegap: 90
OS2WinAscent: 800
OS2WinAOffset: 0
OS2WinDescent: 300
OS2WinDOffset: 0
HheadAscent: 800
HheadAOffset: 0
HheadDescent: -300
HheadDOffset: 0
OS2SubXSize: 650
OS2SubYSize: 699
OS2SubXOff: 0
OS2SubYOff: 140
OS2SupXSize: 650
OS2SupYSize: 699
OS2SupXOff: 0
OS2SupYOff: 479
OS2StrikeYSize: 49
OS2StrikeYPos: 258
OS2CapHeight: 700
OS2XHeight: 500
OS2Vendor: 'KPFi'
OS2CodePages: 00000001.00000000
OS2UnicodeRanges: 00000003.10000002.00000000.00000000
Lookup: 258 0 0 "'kern' Horizontal Kerning in Latin lookup 0" { "'kern' Horizontal Kerning in Latin lookup 0 subtable"  } ['kern' ('DFLT' <'dflt' > 'latn' <'dflt' > ) ]
DEI: 91125
LangName: 1033 "" "" "" "Connection II" "" "" "" "" "" "" "" "" "" "SIL Open Font License Version 1.1" "http://scripts.sil.org/OFL"
Encoding: UnicodeBmp
UnicodeInterp: none
NameList: AGL For New Fonts
DisplaySize: -48
AntiAlias: 1
FitToEm: 0
WinInfo: 0 16 4
BeginPrivate: 8
BlueValues 21 [0 0 500 500 700 700]
OtherBlues 11 [-300 -200]
BlueScale 10 0.00833333
BlueShift 1 0
StdHW 5 [100]
StdVW 5 [100]
StemSnapH 17 [100 110 200 300]
StemSnapV 17 [100 200 300 400]
EndPrivate
BeginChars: 65537 102

StartChar: .notdef
Encoding: 65536 -1 0
Width: 1000
VWidth: 2000
GlyphClass: 1
Flags: HMW
HStem: 0 100<200 800 200 900> 966 100<200 800 200 200>
VStem: 100 100<100 100 100 966> 800 100<100 966 966 966>
LayerCount: 2
Fore
SplineSet
100 0 m 1
 100 1066 l 1
 900 1066 l 1
 900 0 l 1
 100 0 l 1
200 100 m 1
 800 100 l 1
 800 966 l 1
 200 966 l 1
 200 100 l 1
EndSplineSet
EndChar

StartChar: exclam
Encoding: 33 33 2
Width: 400
VWidth: 2000
GlyphClass: 1
Flags: HMW
HStem: 0 200<100 300 100 300> 1360 40G<100 300 300 300>
VStem: 100 200<0 200 0 200 400 1400>
LayerCount: 2
Fore
SplineSet
100 0 m 1
 100 200 l 1
 300 200 l 1
 300 0 l 1
 100 0 l 1
100 400 m 1
 100 1400 l 1
 300 1400 l 1
 300 400 l 1
 100 400 l 1
EndSplineSet
EndChar

StartChar: quotedbl
Encoding: 34 34 3
Width: 1000
VWidth: 2000
GlyphClass: 1
Flags: HMW
HStem: 1000 200<100 300 100 300 500 700> 1200 200<100 500 300 500 300 500 300 500 300 700 700 900>
VStem: 100 200<1000 1200 1000 1200> 300 200<1000 1200 1000 1200 1200 1400> 500 200<1000 1200 1000 1200 1200 1400 1000 1200> 700 200<1000 1400 1200 1400 1200 1400>
LayerCount: 2
Fore
SplineSet
100 1000 m 1xa0
 100 1200 l 1
 300 1200 l 1
 300 1000 l 1
 100 1000 l 1xa0
300 1200 m 1
 300 1400 l 1
 500 1400 l 1x50
 500 1200 l 1x90
 300 1200 l 1
500 1000 m 1x88
 500 1200 l 1x90
 700 1200 l 1
 700 1000 l 1
 500 1000 l 1x88
700 1200 m 1x88
 700 1400 l 1
 900 1400 l 1
 900 1200 l 1x44
 700 1200 l 1x88
EndSplineSet
EndChar

StartChar: numbersign
Encoding: 35 35 4
Width: 1200
VWidth: 2000
GlyphClass: 1
Flags: HMW
HStem: 0 42G<300 500 300 300 700 900 700 700> 400 200<100 300 100 300 500 700 900 1100> 800 200<100 300 100 300 500 700 900 1100> 1360 40G<300 500 500 500 700 900 900 900>
VStem: 300 200<0 400 0 400 600 800 1000 1400> 700 200<0 400 0 400 600 800 1000 1400>
LayerCount: 2
Fore
SplineSet
100 400 m 1
 100 600 l 1
 300 600 l 1
 300 800 l 1
 100 800 l 1
 100 1000 l 1
 300 1000 l 1
 300 1400 l 1
 500 1400 l 1
 500 1000 l 1
 700 1000 l 1
 700 1400 l 1
 900 1400 l 1
 900 1000 l 1
 1100 1000 l 1
 1100 800 l 1
 900 800 l 1
 900 600 l 1
 1100 600 l 1
 1100 400 l 1
 900 400 l 1
 900 0 l 1
 700 0 l 1
 700 400 l 1
 500 400 l 1
 500 0 l 1
 300 0 l 1
 300 400 l 1
 100 400 l 1
500 600 m 1
 700 600 l 1
 700 800 l 1
 500 800 l 1
 500 600 l 1
EndSplineSet
EndChar

StartChar: dollar
Encoding: 36 36 5
Width: 1200
VWidth: 2000
GlyphClass: 1
Flags: HMW
HStem: 0 200<300 500 700 900> 200 200<100 300 100 300 100 500> 600 200<300 500 100 300 700 900> 1000 200<900 1100> 1200 200<100 500 300 500 300 500 300 500 700 900>
VStem: 100 200<200 400 800 1200> 300 600<0 200 0 200 200 400 0 200 600 800 1000 1200 1200 1400> 500 200<-200 0 -200 0 200 600 800 1200 1400 1600> 900 200<0 600 200 600 200 600 200 800 200 600 1000 1200>
LayerCount: 2
Fore
SplineSet
100 200 m 1x64
 100 400 l 1
 300 400 l 1x64
 300 200 l 1
 500 200 l 1
 500 600 l 1xa5
 300 600 l 1xa2
 300 800 l 1
 500 800 l 1
 500 1200 l 1
 300 1200 l 1
 300 800 l 1
 100 800 l 1
 100 1200 l 1
 300 1200 l 1xad
 300 1400 l 1xaa
 500 1400 l 1
 500 1600 l 1
 700 1600 l 1
 700 1400 l 1xa9
 900 1400 l 1xaa
 900 1200 l 1x32
 700 1200 l 1
 700 800 l 1x29
 900 800 l 1
 900 600 l 1x2a
 1100 600 l 1
 1100 200 l 1x6880
 900 200 l 1
 900 0 l 1xa2
 700 0 l 1
 700 -200 l 1
 500 -200 l 1
 500 0 l 1xa1
 300 0 l 1xa2
 300 200 l 1xa4
 100 200 l 1x64
700 200 m 1xa1
 900 200 l 1
 900 600 l 1xa2
 700 600 l 1
 700 200 l 1xa1
900 1000 m 1x3080
 900 1200 l 1x32
 1100 1200 l 1
 1100 1000 l 1
 900 1000 l 1x3080
EndSplineSet
EndChar

StartChar: percent
Encoding: 37 37 6
Width: 2000
VWidth: 2000
GlyphClass: 1
Flags: HMW
HStem: 0 200<300 500 300 500 1300 1700> 200 200<300 700 500 700 500 700 500 700> 400 200<500 700 700 900> 600 200<300 700 700 900 900 1100 1100 1300 1300 1700> 800 200<900 1300 1100 1300 1100 1300 1100 1300 1300 1500> 1000 200<1300 1500> 1200 200<100 700 300 700 300 700 300 700 300 900 1500 1700>
VStem: 100 200<800 1200> 300 200<0 200 0 200> 500 200<0 400 200 400 200 400> 700 200<200 600 400 600 400 600 600 800 400 600 800 1200> 900 200<400 600 400 400 600 800 800 1000> 1100 200<200 600 600 800 800 1000> 1300 200<800 1200 1000 1200 1000 1200> 1500 200<1200 1400> 1700 200<0 600 200 600 200 600 200 600 200 800>
LayerCount: 2
Fore
SplineSet
100 800 m 1x09
 100 1200 l 1
 300 1200 l 1
 300 800 l 1x13
 100 800 l 1x09
300 0 m 1x8080
 300 200 l 1
 500 200 l 1
 500 0 l 1
 300 0 l 1x8080
300 600 m 1x10a0
 300 800 l 1
 700 800 l 1x1120
 700 600 l 1x2120
 300 600 l 1x10a0
300 1200 m 1x0320
 300 1400 l 1x0280
 700 1400 l 1
 700 1200 l 1
 300 1200 l 1x0320
500 200 m 1x8080
 500 400 l 1
 700 400 l 1x4040
 700 600 l 1
 900 600 l 1x2020
 900 800 l 1x1020
 1100 800 l 1x1010
 1100 1000 l 1
 1300 1000 l 1x0808
 1300 1200 l 1
 1500 1200 l 1
 1500 1000 l 1x0404
 1300 1000 l 1x0808
 1300 800 l 1x1008
 1100 800 l 1
 1100 600 l 1x1010
 900 600 l 1
 900 400 l 1x2020
 700 400 l 1
 700 200 l 1x4040
 500 200 l 1x8080
700 800 m 1x1220
 700 1200 l 1
 900 1200 l 1
 900 800 l 1
 700 800 l 1x1220
1100 200 m 1x4008
 1100 600 l 1x5010
 1300 600 l 1
 1300 200 l 1x9008
 1100 200 l 1x4008
1300 0 m 1x8005
 1300 200 l 1x8008
 1700 200 l 1
 1700 0 l 1
 1300 0 l 1x8005
1300 600 m 1x1009
 1300 800 l 1
 1700 800 l 1
 1700 600 l 1
 1300 600 l 1x1009
1500 1200 m 1x0404
 1500 1400 l 1
 1700 1400 l 1
 1700 1200 l 1x0202
 1500 1200 l 1x0404
1700 200 m 1x8001
 1700 600 l 1
 1900 600 l 1
 1900 200 l 1x5001
 1700 200 l 1x8001
EndSplineSet
EndChar

StartChar: ampersand
Encoding: 38 38 7
Width: 1400
VWidth: 2000
GlyphClass: 1
Flags: HMW
HStem: 0 200<300 900> 200 400<100 300 100 300 300 500 100 900 900 1100> 400 200<1100 1300 1100 1100> 600 200<100 300 300 500> 1000 200<900 1100> 1200 200<100 900 300 900 300 900 300 900 300 1100>
VStem: 100 200<200 600 800 1200> 300 200<200 800 600 800 600 800 600 800 600 1200> 300 600<0 200 0 200 200 600 0 200 0 800 1000 1200 1200 1400> 900 200<0 400 200 400 200 600 1000 1200>
LayerCount: 2
Fore
SplineSet
100 200 m 1x42
 100 600 l 1
 300 600 l 1x42
 300 200 l 1x82
 900 200 l 1
 900 0 l 1
 300 0 l 1x8080
 300 200 l 1x82
 100 200 l 1x42
100 800 m 1x12
 100 1200 l 1
 300 1200 l 1
 300 800 l 1x16
 500 800 l 1
 500 600 l 1x15
 300 600 l 1x42
 300 800 l 1
 100 800 l 1x12
300 1200 m 1
 300 1400 l 1
 900 1400 l 1x0480
 900 1200 l 1x0880
 300 1200 l 1
900 200 m 1x8080
 900 600 l 1x4040
 1300 600 l 1
 1300 400 l 1
 1100 400 l 1x2040
 1100 200 l 1x4040
 900 200 l 1x8080
900 1000 m 1x0840
 900 1200 l 1x0880
 1100 1200 l 1
 1100 1000 l 1
 900 1000 l 1x0840
EndSplineSet
EndChar

StartChar: quotesingle
Encoding: 39 39 8
Width: 600
VWidth: 2000
GlyphClass: 1
Flags: HMW
HStem: 1000 200<100 300 100 300> 1200 200<100 500 300 500 300 500 300 500>
VStem: 100 200<1000 1200 1000 1200> 300 200<1000 1400 1200 1400 1200 1400>
LayerCount: 2
Fore
SplineSet
100 1000 m 1xa0
 100 1200 l 1
 300 1200 l 1
 300 1000 l 1
 100 1000 l 1xa0
300 1200 m 1
 300 1400 l 1
 500 1400 l 1
 500 1200 l 1x50
 300 1200 l 1
EndSplineSet
EndChar

StartChar: parenleft
Encoding: 40 40 9
Width: 600
VWidth: 2000
GlyphClass: 1
Flags: HMW
HStem: 0 200<300 500> 1200 200<100 500 300 500 300 500 300 500>
VStem: 100 200<200 1200> 300 200<0 200 0 200 0 1200 0 200 1200 1400>
LayerCount: 2
Fore
SplineSet
100 200 m 1xe0
 100 1200 l 1
 300 1200 l 1xe0
 300 1400 l 1
 500 1400 l 1
 500 1200 l 1xd0
 300 1200 l 1
 300 200 l 1xe0
 500 200 l 1
 500 0 l 1
 300 0 l 1xd0
 300 200 l 1
 100 200 l 1xe0
EndSplineSet
EndChar

StartChar: parenright
Encoding: 41 41 10
Width: 600
VWidth: 2000
GlyphClass: 1
Flags: HMW
HStem: 0 200<100 300 100 300> 1200 200<100 300 100 300 100 500>
VStem: 100 200<0 200 0 200 1200 1400> 300 200<0 1200 200 1200 200 1200 200 1200 200 1400>
LayerCount: 2
Fore
SplineSet
100 0 m 1xe0
 100 200 l 1
 300 200 l 1
 300 0 l 1
 100 0 l 1xe0
100 1200 m 1
 100 1400 l 1
 300 1400 l 1
 300 1200 l 1xe0
 500 1200 l 1
 500 200 l 1xd0
 300 200 l 1
 300 1200 l 1
 100 1200 l 1
EndSplineSet
EndChar

StartChar: asterisk
Encoding: 42 42 11
Width: 800
VWidth: 2000
GlyphClass: 1
Flags: HMW
HStem: 400 200<100 300 100 300 500 700> 600 200<100 300 300 500 500 700> 800 200<100 300 100 300 100 500 500 700>
VStem: 100 200<400 600 400 600 800 1000> 300 200<400 600 400 600 600 800 800 1000> 500 200<400 600 400 600 400 800 400 600 800 1000>
LayerCount: 2
Fore
SplineSet
100 400 m 1x90
 100 600 l 1
 300 600 l 1x90
 300 800 l 1x50
 500 800 l 1x48
 500 600 l 1x88
 300 600 l 1
 300 400 l 1
 100 400 l 1x90
100 800 m 1x30
 100 1000 l 1
 300 1000 l 1x30
 300 800 l 1x50
 100 800 l 1x30
500 400 m 1x84
 500 600 l 1x88
 700 600 l 1
 700 400 l 1
 500 400 l 1x84
500 800 m 1x48
 500 1000 l 1
 700 1000 l 1
 700 800 l 1x24
 500 800 l 1x48
EndSplineSet
EndChar

StartChar: plus
Encoding: 43 43 12
Width: 1200
VWidth: 2000
GlyphClass: 1
Flags: HMW
HStem: 600 200<100 500 100 500 700 1100>
VStem: 500 200<200 600 200 600 800 1200>
LayerCount: 2
Fore
SplineSet
100 600 m 1
 100 800 l 1
 500 800 l 1
 500 1200 l 1
 700 1200 l 1
 700 800 l 1
 1100 800 l 1
 1100 600 l 1
 700 600 l 1
 700 200 l 1
 500 200 l 1
 500 600 l 1
 100 600 l 1
EndSplineSet
EndChar

StartChar: comma
Encoding: 44 44 13
Width: 600
VWidth: 2000
GlyphClass: 1
Flags: HMW
HStem: 0 200<300 500 300 300>
VStem: 100 200<-200 0 -200 200>
LayerCount: 2
Fore
SplineSet
100 -200 m 1
 100 200 l 1
 500 200 l 1
 500 0 l 1
 300 0 l 1
 300 -200 l 1
 100 -200 l 1
EndSplineSet
EndChar

StartChar: hyphen
Encoding: 45 45 14
Width: 1200
VWidth: 2000
GlyphClass: 1
Flags: HMW
HStem: 600 200<100 1100 100 1100>
LayerCount: 2
Fore
SplineSet
100 600 m 1
 100 800 l 1
 1100 800 l 1
 1100 600 l 1
 100 600 l 1
EndSplineSet
EndChar

StartChar: period
Encoding: 46 46 15
Width: 400
VWidth: 2000
GlyphClass: 1
Flags: HMW
HStem: 0 200<100 300 100 300>
VStem: 100 200<0 200 0 200>
LayerCount: 2
Fore
SplineSet
100 0 m 1
 100 200 l 1
 300 200 l 1
 300 0 l 1
 100 0 l 1
EndSplineSet
EndChar

StartChar: slash
Encoding: 47 47 16
Width: 1600
VWidth: 2000
GlyphClass: 1
Flags: HMW
HStem: 0 200<100 300 100 300> 200 200<100 500 300 500 300 500 300 500> 400 200<300 700 500 700 500 700 500 700> 600 200<500 900 700 900 700 900 700 900> 800 200<700 1100 900 1100 900 1100 900 1100> 1000 200<900 1300 1100 1300 1100 1300 1100 1300> 1200 200<1100 1500 1300 1500 1300 1500 1300 1500>
VStem: 100 200<0 200 0 200> 300 200<0 400 200 400 200 400> 500 200<200 600 400 600 400 600> 700 200<400 800 600 800 600 800> 900 200<600 1000 800 1000 800 1000> 1100 200<800 1200 1000 1200 1000 1200> 1300 200<1000 1400 1200 1400 1200 1400>
LayerCount: 2
Fore
SplineSet
100 0 m 1x81
 100 200 l 1
 300 200 l 1
 300 0 l 1
 100 0 l 1x81
300 200 m 1
 300 400 l 1
 500 400 l 1
 500 200 l 1x4080
 300 200 l 1
500 400 m 1
 500 600 l 1
 700 600 l 1
 700 400 l 1x2040
 500 400 l 1
700 600 m 1
 700 800 l 1
 900 800 l 1
 900 600 l 1x1020
 700 600 l 1
900 800 m 1
 900 1000 l 1
 1100 1000 l 1
 1100 800 l 1x0810
 900 800 l 1
1100 1000 m 1
 1100 1200 l 1
 1300 1200 l 1
 1300 1000 l 1x0408
 1100 1000 l 1
1300 1200 m 1
 1300 1400 l 1
 1500 1400 l 1
 1500 1200 l 1x0204
 1300 1200 l 1
EndSplineSet
EndChar

StartChar: zero
Encoding: 48 48 17
Width: 1000
VWidth: 2000
GlyphClass: 1
Flags: HMW
HStem: 0 200<300 300> 1200 200<100 300 300 300 300 300>
VStem: 100 200<200 1200> 300 400<2 200 200 200 200 202 202 1200 200 200 1200 1202 1202 1400 1400 1400> 700 200<2 1202 202 1202 202 1202 202 1202 202 1402>
LayerCount: 2
Fore
SplineSet
100 200 m 1xe0
 100 1200 l 1
 300 1200 l 1
 300 200 l 1
 100 200 l 1xe0
300 0 m 1xd0
 300 200 l 1
 700 202 l 1xe8
 700 2 l 1
 300 0 l 1xd0
300 1200 m 1
 300 1400 l 1xd0
 700 1402 l 1xc8
 700 1202 l 1xd0
 300 1200 l 1
700 202 m 1xc8
 700 1202 l 1xd0
 900 1202 l 1
 900 202 l 1
 700 202 l 1xc8
EndSplineSet
EndChar

StartChar: one
Encoding: 49 49 18
Width: 800
VWidth: 2000
GlyphClass: 1
Flags: HMW
HStem: 0 200<100 300 100 300 500 700> 1000 200<100 300 100 300> 1360 40G<300 500 500 500>
VStem: 300 200<200 1000 1000 1000 1200 1400 200 1400>
LayerCount: 2
Fore
SplineSet
100 0 m 1
 100 200 l 1
 300 200 l 1
 300 1000 l 1
 100 1000 l 1
 100 1200 l 1
 300 1200 l 1
 300 1400 l 1
 500 1400 l 1
 500 200 l 1
 700 200 l 1
 700 0 l 1
 100 0 l 1
EndSplineSet
EndChar

StartChar: two
Encoding: 50 50 19
Width: 1000
VWidth: 2000
GlyphClass: 1
Flags: HMW
HStem: 0 200<300 900 300 900> 400 200<100 500 300 500 300 500 300 500> 600 200<300 700 500 700 500 700 500 700> 1000 200<100 300 100 300> 1200 200<100 700 300 700 300 700 300 700 300 900>
VStem: 100 200<200 400 200 400 200 400 1000 1200> 300 200<200 600 400 600 400 600> 500 200<400 800 600 800 600 800> 700 200<800 1200>
LayerCount: 2
Fore
SplineSet
100 0 m 1xc480
 100 400 l 1
 300 400 l 1
 300 200 l 1
 900 200 l 1
 900 0 l 1
 100 0 l 1xc480
100 1000 m 1x9480
 100 1200 l 1
 300 1200 l 1x9480
 300 1400 l 1
 700 1400 l 1
 700 1200 l 1
 900 1200 l 1
 900 800 l 1xaa80
 700 800 l 1xa9
 700 1200 l 1xa880
 300 1200 l 1
 300 1000 l 1
 100 1000 l 1x9480
300 400 m 1xc4
 300 600 l 1
 500 600 l 1
 500 400 l 1xc2
 300 400 l 1xc4
500 600 m 1
 500 800 l 1
 700 800 l 1
 700 600 l 1xa1
 500 600 l 1
EndSplineSet
EndChar

StartChar: three
Encoding: 51 51 20
Width: 1000
VWidth: 2000
GlyphClass: 1
Flags: HMW
HStem: 0 200<300 700> 200 200<100 300 100 300 100 700> 600 200<300 700 300 700 700 900> 1000 200<100 300 100 300> 1200 200<100 700 300 700 300 700 300 700 300 900>
VStem: 100 200<200 400 1000 1200> 300 400<0 200 0 200 200 400 0 200 600 800 1000 1000 1000 1200 1200 1400> 700 200<0 600 200 600 200 600 200 600 200 800 800 1200>
LayerCount: 2
Fore
SplineSet
100 200 m 1x64
 100 400 l 1
 300 400 l 1x64
 300 200 l 1xa4
 700 200 l 1
 700 0 l 1
 300 0 l 1xa2
 300 200 l 1xa4
 100 200 l 1x64
100 1000 m 1x34
 100 1200 l 1
 300 1200 l 1
 300 1000 l 1
 100 1000 l 1x34
300 600 m 1xa2
 300 800 l 1
 700 800 l 1
 700 600 l 1xa2
 900 600 l 1
 900 200 l 1x61
 700 200 l 1
 700 600 l 1
 300 600 l 1xa2
300 1200 m 1x34
 300 1400 l 1
 700 1400 l 1
 700 1200 l 1x2a
 300 1200 l 1x34
700 800 m 1
 700 1200 l 1x2a
 900 1200 l 1
 900 800 l 1x29
 700 800 l 1
EndSplineSet
EndChar

StartChar: four
Encoding: 52 52 21
Width: 1000
VWidth: 2000
GlyphClass: 1
Flags: HMW
HStem: 0 42G<500 700 500 500> 600 200<300 500 300 500 700 900> 960 40G<100 300 300 300 300 500 300 300> 1000 200<100 500 300 500 300 500 300 500> 1360 40G<500 700 700 700>
VStem: 100 200<800 1000 800 1000 800 1000> 500 200<0 600 0 600 800 1000 1000 1000 1200 1400>
LayerCount: 2
Fore
SplineSet
100 600 m 1xde
 100 1000 l 1
 300 1000 l 1xee
 300 800 l 1
 500 800 l 1
 500 1000 l 1xde
 300 1000 l 1xee
 300 1200 l 1
 500 1200 l 1
 500 1400 l 1
 700 1400 l 1
 700 800 l 1
 900 800 l 1
 900 600 l 1
 700 600 l 1
 700 0 l 1
 500 0 l 1
 500 600 l 1
 100 600 l 1xde
EndSplineSet
EndChar

StartChar: five
Encoding: 53 53 22
Width: 1000
VWidth: 2000
GlyphClass: 1
Flags: HMW
HStem: 0 200<100 700 100 700> 600 200<300 700> 1200 200<300 900 300 300>
VStem: 100 200<800 1200> 700 200<0 600 200 600 200 600 200 800 200 600>
CounterMasks: 1 e0
LayerCount: 2
Fore
SplineSet
100 0 m 1
 100 200 l 1
 700 200 l 1
 700 600 l 1
 900 600 l 1
 900 200 l 1
 700 200 l 1
 700 0 l 1
 100 0 l 1
100 800 m 1
 100 1400 l 1
 900 1400 l 1
 900 1200 l 1
 300 1200 l 1
 300 800 l 1
 700 800 l 1
 700 600 l 1
 300 600 l 1
 300 800 l 1
 100 800 l 1
EndSplineSet
EndChar

StartChar: six
Encoding: 54 54 23
Width: 1000
VWidth: 2000
GlyphClass: 1
Flags: HMW
HStem: 0 200<300 700> 600 200<300 700 300 700 300 900> 1000 200<700 900> 1200 200<100 700 300 700 300 700 300 700 300 900>
VStem: 100 200<200 600 800 1200> 300 400<0 200 0 200 200 600 0 200 1000 1200 1200 1400> 700 200<0 600 200 600 200 600 200 800 200 600 1000 1200>
LayerCount: 2
Fore
SplineSet
100 200 m 1xda
 100 1200 l 1
 300 1200 l 1xda
 300 1400 l 1
 700 1400 l 1xd4
 700 1200 l 1xe4
 300 1200 l 1
 300 800 l 1
 700 800 l 1
 700 600 l 1
 300 600 l 1
 300 200 l 1
 100 200 l 1xda
300 0 m 1xc4
 300 200 l 1xc8
 700 200 l 1
 700 0 l 1
 300 0 l 1xc4
700 200 m 1xc4
 700 600 l 1
 900 600 l 1
 900 200 l 1xc2
 700 200 l 1xc4
700 1000 m 1xe2
 700 1200 l 1xe4
 900 1200 l 1
 900 1000 l 1
 700 1000 l 1xe2
EndSplineSet
EndChar

StartChar: seven
Encoding: 55 55 24
Width: 1000
VWidth: 2000
GlyphClass: 1
Flags: HMW
HStem: 0 42G<300 300 300 500> 1200 200<100 900 100 700>
VStem: 300 200<0 400 0 400> 500 200<0 800 400 800 400 800> 700 200<400 1400 800 1200 1200 1200>
LayerCount: 2
Fore
SplineSet
100 1200 m 1xc8
 100 1400 l 1
 900 1400 l 1
 900 800 l 1xc8
 700 800 l 1
 700 400 l 1xd0
 500 400 l 1xe0
 500 800 l 1
 700 800 l 1xd0
 700 1200 l 1
 100 1200 l 1xc8
300 0 m 1xe0
 300 400 l 1
 500 400 l 1
 500 0 l 1
 300 0 l 1xe0
EndSplineSet
EndChar

StartChar: eight
Encoding: 56 56 25
Width: 1000
VWidth: 2000
GlyphClass: 1
Flags: HMW
HStem: 0 200<300 700> 200 400<100 300 100 300 300 700 700 900> 600 200<100 300 300 700 700 900> 800 400<100 300 100 300 300 700 700 900> 1200 200<100 700 300 700 300 700 300 700 300 900>
VStem: 100 200<200 600 800 1200> 300 400<0 200 0 200 200 600 0 200 600 800 800 1200 1200 1400> 700 200<0 600 200 600 200 600 200 800 200 600 800 1200>
LayerCount: 2
Fore
SplineSet
100 200 m 1x44
 100 600 l 1
 300 600 l 1x44
 300 200 l 1x84
 100 200 l 1x44
100 800 m 1x14
 100 1200 l 1
 300 1200 l 1x14
 300 1400 l 1
 700 1400 l 1x0a
 700 1200 l 1x12
 900 1200 l 1
 900 800 l 1x11
 700 800 l 1x22
 700 1200 l 1x12
 300 1200 l 1x14
 300 800 l 1x24
 700 800 l 1x22
 700 600 l 1x42
 300 600 l 1x44
 300 800 l 1x24
 100 800 l 1x14
300 0 m 1x82
 300 200 l 1x84
 700 200 l 1
 700 0 l 1
 300 0 l 1x82
700 200 m 1x82
 700 600 l 1x42
 900 600 l 1
 900 200 l 1x41
 700 200 l 1x82
EndSplineSet
EndChar

StartChar: nine
Encoding: 57 57 26
Width: 1000
VWidth: 2000
GlyphClass: 1
Flags: HMW
HStem: 0 200<300 700> 200 200<100 300 100 300 100 700> 600 200<300 700> 1200 200<100 700 300 700 300 700 300 700 300 900>
VStem: 100 200<200 400 800 1200> 300 400<0 200 0 200 200 400 0 200 800 1200 1200 1400> 700 200<0 1200 200 600 600 600 800 1200 200 1200 200 1400 200 1200>
LayerCount: 2
Fore
SplineSet
100 200 m 1x78
 100 400 l 1
 300 400 l 1x78
 300 200 l 1xb8
 100 200 l 1x78
100 800 m 1
 100 1200 l 1
 300 1200 l 1
 300 800 l 1
 100 800 l 1
300 0 m 1xb4
 300 200 l 1xb8
 700 200 l 1xb4
 700 600 l 1xb2
 300 600 l 1xb4
 300 800 l 1
 700 800 l 1xba
 700 1200 l 1xb4
 900 1200 l 1
 900 200 l 1x72
 700 200 l 1
 700 0 l 1
 300 0 l 1xb4
300 1200 m 1
 300 1400 l 1
 700 1400 l 1
 700 1200 l 1x34
 300 1200 l 1
EndSplineSet
EndChar

StartChar: colon
Encoding: 58 58 27
Width: 400
VWidth: 2000
GlyphClass: 1
Flags: HMW
HStem: 0 200<100 300 100 300> 800 200<100 300 100 300>
VStem: 100 200<0 200 0 200 800 1000>
LayerCount: 2
Fore
SplineSet
100 0 m 1
 100 200 l 1
 300 200 l 1
 300 0 l 1
 100 0 l 1
100 800 m 1
 100 1000 l 1
 300 1000 l 1
 300 800 l 1
 100 800 l 1
EndSplineSet
EndChar

StartChar: semicolon
Encoding: 59 59 28
Width: 600
VWidth: 2000
GlyphClass: 1
Flags: HMW
HStem: 0 200<300 500 300 300> 800 200<100 300 100 300>
VStem: 100 200<-200 0 -200 200 800 1000>
LayerCount: 2
Fore
SplineSet
100 -200 m 1
 100 200 l 1
 500 200 l 1
 500 0 l 1
 300 0 l 1
 300 -200 l 1
 100 -200 l 1
100 800 m 1
 100 1000 l 1
 300 1000 l 1
 300 800 l 1
 100 800 l 1
EndSplineSet
EndChar

StartChar: less
Encoding: 60 60 29
Width: 800
VWidth: 2000
GlyphClass: 1
Flags: HMW
HStem: 200 200<500 700> 400 200<300 500> 600 200<100 300 100 300 300 500> 800 200<100 500 300 500 300 500 300 500> 1000 200<300 700 500 700 500 700 500 700>
VStem: 100 200<600 800> 300 200<400 600 800 1000> 500 200<200 400 200 400 200 600 200 400 1000 1200>
LayerCount: 2
Fore
SplineSet
100 600 m 1x24
 100 800 l 1
 300 800 l 1x24
 300 600 l 1x44
 100 600 l 1x24
300 400 m 1x42
 300 600 l 1x44
 500 600 l 1x42
 500 400 l 1x82
 300 400 l 1x42
300 800 m 1x24
 300 1000 l 1
 500 1000 l 1
 500 800 l 1x12
 300 800 l 1x24
500 200 m 1x81
 500 400 l 1x82
 700 400 l 1
 700 200 l 1
 500 200 l 1x81
500 1000 m 1x12
 500 1200 l 1
 700 1200 l 1
 700 1000 l 1x09
 500 1000 l 1x12
EndSplineSet
EndChar

StartChar: equal
Encoding: 61 61 30
Width: 1000
VWidth: 2000
GlyphClass: 1
Flags: HMW
HStem: 400 200<100 900 100 900> 800 200<100 900 100 900>
LayerCount: 2
Fore
SplineSet
100 400 m 1
 100 600 l 1
 900 600 l 1
 900 400 l 1
 100 400 l 1
100 800 m 1
 100 1000 l 1
 900 1000 l 1
 900 800 l 1
 100 800 l 1
EndSplineSet
EndChar

StartChar: greater
Encoding: 62 62 31
Width: 800
VWidth: 2000
GlyphClass: 1
Flags: HMW
HStem: 200 200<100 300 100 300> 400 200<100 500 300 500 300 500 300 500> 600 200<300 500 500 700> 800 200<300 500> 1000 200<100 300 100 300 100 500>
VStem: 100 200<200 400 200 400 1000 1200> 300 200<200 600 400 600 400 600 800 1000> 500 200<400 800 600 800 600 800 600 800 600 1000>
LayerCount: 2
Fore
SplineSet
100 200 m 1x84
 100 400 l 1
 300 400 l 1
 300 200 l 1
 100 200 l 1x84
100 1000 m 1x0c
 100 1200 l 1
 300 1200 l 1x0c
 300 1000 l 1x14
 100 1000 l 1x0c
300 400 m 1x84
 300 600 l 1
 500 600 l 1
 500 400 l 1x42
 300 400 l 1x84
300 800 m 1x12
 300 1000 l 1x14
 500 1000 l 1x12
 500 800 l 1x22
 300 800 l 1x12
500 600 m 1x42
 500 800 l 1x22
 700 800 l 1
 700 600 l 1x21
 500 600 l 1x42
EndSplineSet
EndChar

StartChar: question
Encoding: 63 63 32
Width: 1000
VWidth: 2000
GlyphClass: 1
Flags: HMW
HStem: 0 200<300 500 300 500> 600 200<500 700 500 500> 1000 200<100 300 100 300> 1200 200<100 700 300 700 300 700 300 700 300 900>
VStem: 100 200<1000 1200> 300 200<0 200 0 200 400 600> 300 400<600 800 600 800 600 800 1000 1200 1000 1000 1200 1400> 700 200<600 1200 800 1200 800 1200 800 1200 800 1400>
LayerCount: 2
Fore
SplineSet
100 1000 m 1xe8
 100 1200 l 1
 300 1200 l 1
 300 1000 l 1
 100 1000 l 1xe8
300 0 m 1xc4
 300 200 l 1
 500 200 l 1
 500 0 l 1
 300 0 l 1xc4
300 400 m 1
 300 800 l 1
 700 800 l 1
 700 600 l 1xc2
 500 600 l 1
 500 400 l 1
 300 400 l 1
300 1200 m 1xe8
 300 1400 l 1
 700 1400 l 1
 700 1200 l 1xd2
 300 1200 l 1xe8
700 800 m 1
 700 1200 l 1xd2
 900 1200 l 1
 900 800 l 1xd1
 700 800 l 1
EndSplineSet
EndChar

StartChar: at
Encoding: 64 64 33
Width: 1600
VWidth: 2000
GlyphClass: 1
Flags: HMW
HStem: 0 200<300 1300> 400 200<700 900 1100 1300 500 700> 600 200<500 700 500 700 700 900> 800 200<500 1100 700 1100 700 900 700 1100> 1200 200<100 1300 300 1300 300 1300 300 1300 300 1500>
VStem: 100 200<200 1200> 500 200<600 800> 900 200<600 800 800 800> 1300 200<600 1200 400 1200 400 1400 400 1200>
LayerCount: 2
Fore
SplineSet
100 200 m 1xdf80
 100 1200 l 1
 300 1200 l 1
 300 1400 l 1
 1300 1400 l 1
 1300 1200 l 1
 1500 1200 l 1
 1500 400 l 1
 700 400 l 1
 700 600 l 1
 900 600 l 1
 900 800 l 1xdf80
 700 800 l 1xaf80
 700 600 l 1xcf80
 500 600 l 1
 500 800 l 1
 700 800 l 1xaf80
 700 1000 l 1
 1100 1000 l 1
 1100 600 l 1
 1300 600 l 1
 1300 1200 l 1
 300 1200 l 1
 300 200 l 1
 1300 200 l 1
 1300 0 l 1
 300 0 l 1
 300 200 l 1
 100 200 l 1xdf80
EndSplineSet
EndChar

StartChar: A
Encoding: 65 65 34
Width: 1200
VWidth: 2000
GlyphClass: 1
Flags: HMW
HStem: 0 42G<100 100 100 300 900 900 900 1100> 400 200<300 900 300 900> 1000 200<100 500 300 500 300 500 700 900 300 500> 1360 40G<500 700 700 700>
VStem: 100 200<0 400 600 1000> 500 200<1200 1400 1200 1400> 900 200<0 400 400 400 600 1000 0 1000 0 1200 0 1000>
CounterMasks: 1 0e
LayerCount: 2
Fore
SplineSet
100 0 m 1
 100 1000 l 1
 300 1000 l 1
 300 1200 l 1
 500 1200 l 1
 500 1400 l 1
 700 1400 l 1
 700 1200 l 1
 900 1200 l 1
 900 1000 l 1
 1100 1000 l 1
 1100 0 l 1
 900 0 l 1
 900 400 l 1
 300 400 l 1
 300 0 l 1
 100 0 l 1
300 600 m 1
 900 600 l 1
 900 1000 l 1
 300 1000 l 1
 300 600 l 1
EndSplineSet
EndChar

StartChar: B
Encoding: 66 66 35
Width: 1200
VWidth: 2000
GlyphClass: 1
Flags: HMW
HStem: 0 200<300 900 300 900> 800 200<300 900 300 900 900 1100> 1000 200<300 900 300 900 900 1100 300 900> 1200 200<300 900 300 300 100 1100>
VStem: 100 200<200 800 1000 1200> 100 800<0 200 200 800 800 1000 1000 1200 1200 1400> 900 200<0 800 200 800 200 800 200 1000 200 800 1000 1200>
LayerCount: 2
Fore
SplineSet
100 0 m 1xd4
 100 1400 l 1
 900 1400 l 1xd4
 900 1200 l 1xa4
 1100 1200 l 1
 1100 1000 l 1xa2
 900 1000 l 1xc4
 900 1200 l 1xa4
 300 1200 l 1
 300 1000 l 1xd8
 900 1000 l 1
 900 800 l 1xd4
 1100 800 l 1
 1100 200 l 1xd2
 900 200 l 1
 900 800 l 1xd4
 300 800 l 1
 300 200 l 1xd8
 900 200 l 1
 900 0 l 1
 100 0 l 1xd4
EndSplineSet
EndChar

StartChar: C
Encoding: 67 67 36
Width: 1200
VWidth: 2000
GlyphClass: 1
Flags: HMW
HStem: 0 200<300 900> 200 200<300 1100 900 1100 900 1100 900 1100> 1000 200<900 1100> 1200 200<100 900 300 900 300 900 300 900 300 1100>
VStem: 100 200<200 1200> 300 600<0 200 0 200 200 400 1000 1200 0 200 1200 1400> 900 200<0 400 200 400 200 400 1000 1200>
LayerCount: 2
Fore
SplineSet
100 200 m 1x48
 100 1200 l 1
 300 1200 l 1x58
 300 1400 l 1
 900 1400 l 1x54
 900 1200 l 1x24
 300 1200 l 1
 300 200 l 1x98
 900 200 l 1
 900 0 l 1
 300 0 l 1x94
 300 200 l 1x98
 100 200 l 1x48
900 200 m 1x84
 900 400 l 1
 1100 400 l 1
 1100 200 l 1x42
 900 200 l 1x84
900 1000 m 1x22
 900 1200 l 1x24
 1100 1200 l 1
 1100 1000 l 1
 900 1000 l 1x22
EndSplineSet
EndChar

StartChar: D
Encoding: 68 68 37
Width: 1200
VWidth: 2000
GlyphClass: 1
Flags: HMW
HStem: 0 200<300 900 300 900> 1200 200<300 900 300 300 100 1100>
VStem: 100 200<200 1200 200 1400> 900 200<0 1200 200 1200 200 1200 200 1400 200 1200>
LayerCount: 2
Fore
SplineSet
100 0 m 1
 100 1400 l 1
 900 1400 l 1
 900 1200 l 1
 1100 1200 l 1
 1100 200 l 1
 900 200 l 1
 900 1200 l 1
 300 1200 l 1
 300 200 l 1
 900 200 l 1
 900 0 l 1
 100 0 l 1
EndSplineSet
EndChar

StartChar: E
Encoding: 69 69 38
Width: 1000
VWidth: 2000
GlyphClass: 1
Flags: HMW
HStem: 0 200<300 900 300 900> 600 200<300 700 300 700> 1200 200<300 900 300 300>
VStem: 100 200<200 600 800 1200>
CounterMasks: 1 e0
LayerCount: 2
Fore
SplineSet
100 0 m 1
 100 1400 l 1
 900 1400 l 1
 900 1200 l 1
 300 1200 l 1
 300 800 l 1
 700 800 l 1
 700 600 l 1
 300 600 l 1
 300 200 l 1
 900 200 l 1
 900 0 l 1
 100 0 l 1
EndSplineSet
EndChar

StartChar: F
Encoding: 70 70 39
Width: 1000
VWidth: 2000
GlyphClass: 1
Flags: HMW
HStem: 0 42G<100 100 100 300> 600 200<300 700 300 700> 1200 200<300 900 300 300>
VStem: 100 200<0 600 800 1200>
LayerCount: 2
Fore
SplineSet
100 0 m 1
 100 1400 l 1
 900 1400 l 1
 900 1200 l 1
 300 1200 l 1
 300 800 l 1
 700 800 l 1
 700 600 l 1
 300 600 l 1
 300 0 l 1
 100 0 l 1
EndSplineSet
EndChar

StartChar: G
Encoding: 71 71 40
Width: 1200
VWidth: 2000
GlyphClass: 1
Flags: HMW
HStem: 0 200<300 900> 600 200<500 900 500 1100> 1000 200<900 1100> 1200 200<100 900 300 900 300 900 300 900 300 1100>
VStem: 100 200<200 1200> 300 600<0 200 0 200 200 600 1000 1200 0 200 1200 1400> 900 200<0 800 200 600 600 600 1000 1200>
LayerCount: 2
Fore
SplineSet
100 200 m 1xd8
 100 1200 l 1
 300 1200 l 1xd8
 300 1400 l 1
 900 1400 l 1xd4
 900 1200 l 1xe4
 300 1200 l 1
 300 200 l 1xd8
 900 200 l 1xd4
 900 600 l 1
 500 600 l 1
 500 800 l 1
 1100 800 l 1
 1100 200 l 1xd2
 900 200 l 1
 900 0 l 1
 300 0 l 1xd4
 300 200 l 1
 100 200 l 1xd8
900 1000 m 1xe2
 900 1200 l 1xe4
 1100 1200 l 1
 1100 1000 l 1
 900 1000 l 1xe2
EndSplineSet
EndChar

StartChar: H
Encoding: 72 72 41
Width: 1200
VWidth: 2000
GlyphClass: 1
Flags: HMW
HStem: 0 42G<100 100 100 300 900 900 900 1100> 600 200<300 900 300 900> 1360 40G<100 300 300 300 900 1100 1100 1100>
VStem: 100 200<0 600 800 1400> 900 200<0 600 600 600 800 1400 0 1400>
LayerCount: 2
Fore
SplineSet
100 0 m 1
 100 1400 l 1
 300 1400 l 1
 300 800 l 1
 900 800 l 1
 900 1400 l 1
 1100 1400 l 1
 1100 0 l 1
 900 0 l 1
 900 600 l 1
 300 600 l 1
 300 0 l 1
 100 0 l 1
EndSplineSet
EndChar

StartChar: I
Encoding: 73 73 42
Width: 400
VWidth: 2000
GlyphClass: 1
Flags: HMW
HStem: 0 42G<100 100 100 300> 1360 40G<100 300 300 300>
VStem: 100 200<0 1400 0 1400>
LayerCount: 2
Fore
SplineSet
100 0 m 1
 100 1400 l 1
 300 1400 l 1
 300 0 l 1
 100 0 l 1
EndSplineSet
EndChar

StartChar: J
Encoding: 74 74 43
Width: 1000
VWidth: 2000
GlyphClass: 1
Flags: HMW
HStem: 0 200<300 700> 200 200<100 300 100 300 100 700> 1360 40G<700 900 900 900>
VStem: 100 200<200 400> 700 200<0 1400 200 1400 200 1400>
LayerCount: 2
Fore
SplineSet
100 200 m 1x78
 100 400 l 1
 300 400 l 1x78
 300 200 l 1xb8
 100 200 l 1x78
300 0 m 1xb8
 300 200 l 1
 700 200 l 1
 700 0 l 1
 300 0 l 1xb8
700 200 m 1
 700 1400 l 1
 900 1400 l 1
 900 200 l 1x78
 700 200 l 1
EndSplineSet
EndChar

StartChar: K
Encoding: 75 75 44
Width: 1200
VWidth: 2000
GlyphClass: 1
Flags: HMW
HStem: 0 200<700 900 900 1100> 200 200<700 900 500 700> 400 200<500 700 300 500> 800 200<300 700 500 700 500 700 500 700> 1000 200<500 900 700 900 700 900 700 900> 1200 200<900 1100>
VStem: 100 200<0 600 800 1400> 500 200<400 600 800 1000> 700 200<200 400 1000 1200> 900 200<0 200 0 200 0 400 0 200 1200 1400>
LayerCount: 2
Fore
SplineSet
100 0 m 1xa3
 100 1400 l 1
 300 1400 l 1
 300 800 l 1
 500 800 l 1
 500 1000 l 1
 700 1000 l 1xb7
 700 1200 l 1
 900 1200 l 1x0a80
 900 1400 l 1
 1100 1400 l 1
 1100 1200 l 1x0640
 900 1200 l 1
 900 1000 l 1x0a80
 700 1000 l 1
 700 800 l 1
 500 800 l 1
 500 600 l 1
 700 600 l 1x33
 700 400 l 1x43
 900 400 l 1x4280
 900 200 l 1x8280
 1100 200 l 1
 1100 0 l 1
 900 0 l 1x8240
 900 200 l 1x8280
 700 200 l 1x4280
 700 400 l 1x43
 500 400 l 1
 500 600 l 1
 300 600 l 1
 300 0 l 1
 100 0 l 1xa3
EndSplineSet
EndChar

StartChar: L
Encoding: 76 76 45
Width: 1000
VWidth: 2000
GlyphClass: 1
Flags: HMW
HStem: 0 200<300 900 300 900> 1360 40G<100 300 300 300>
VStem: 100 200<200 1400 200 1400 200 1400>
LayerCount: 2
Fore
SplineSet
100 0 m 1
 100 1400 l 1
 300 1400 l 1
 300 200 l 1
 900 200 l 1
 900 0 l 1
 100 0 l 1
EndSplineSet
EndChar

StartChar: M
Encoding: 77 77 46
Width: 1600
VWidth: 2000
GlyphClass: 1
Flags: HMW
HStem: 0 42G<100 100 100 300 1300 1300 1300 1500> 400 600<300 500 500 700 300 900 900 1100> 1000 400<300 500 300 500 300 700 300 700 1100 1300>
VStem: 100 200<0 1000 0 1200> 300 200<400 1000 400 1000 1200 1400> 500 200<600 1000> 700 200<200 400 200 400 600 1000> 900 200<200 1000 600 1000 400 1000> 1100 200<400 1000 400 400 1200 1400> 1300 200<0 1000 1000 1000 0 1400 0 1200>
LayerCount: 2
Fore
SplineSet
100 0 m 1xb4
 100 1200 l 1xb4
 300 1200 l 1
 300 1400 l 1
 500 1400 l 1xa8
 500 1000 l 1xc4
 300 1000 l 1
 300 0 l 1
 100 0 l 1xb4
500 400 m 1xc4
 500 1000 l 1
 700 1000 l 1
 700 600 l 1
 900 600 l 1
 900 1000 l 1
 1100 1000 l 1xc5
 1100 400 l 1
 900 400 l 1
 900 200 l 1
 700 200 l 1
 700 400 l 1xc280
 500 400 l 1xc4
1100 1000 m 1
 1100 1400 l 1
 1300 1400 l 1
 1300 1200 l 1xa080
 1500 1200 l 1
 1500 0 l 1
 1300 0 l 1
 1300 1000 l 1xa040
 1100 1000 l 1
EndSplineSet
EndChar

StartChar: N
Encoding: 78 78 47
Width: 1200
VWidth: 2000
GlyphClass: 1
Flags: HMW
HStem: 0 42G<100 100 100 300 900 900 900 1100> 600 220<300 500 500 700 300 900> 1360 40G<100 300 300 300 900 1100 1100 1100>
VStem: 100 200<0 820 1200 1400> 100 400<600 820 820 1200 600 1400> 500 200<600 820> 700 400<200 600 600 600 600 820 600 600> 900 200<0 200 200 200 600 1400 0 1400>
LayerCount: 2
Fore
SplineSet
100 0 m 1xf0
 100 1400 l 1
 300 1400 l 1
 300 1200 l 1xf0
 500 1200 l 1
 500 820 l 1xe8
 300 820 l 1
 300 0 l 1
 100 0 l 1xf0
500 600 m 1xe4
 500 820 l 1xe8
 700 820 l 1
 700 600 l 1
 500 600 l 1xe4
700 200 m 1xe2
 700 600 l 1
 900 600 l 1
 900 1400 l 1
 1100 1400 l 1
 1100 0 l 1
 900 0 l 1
 900 200 l 1xe5
 700 200 l 1xe2
EndSplineSet
EndChar

StartChar: O
Encoding: 79 79 48
Width: 1200
VWidth: 2000
GlyphClass: 1
Flags: HMW
HStem: 0 200<300 900> 1200 200<100 900 300 900 300 900 300 900 300 1100>
VStem: 100 200<200 1200> 300 600<0 200 0 200 200 1200 0 200 1200 1400> 900 200<0 1200 200 1200 200 1200 200 1200 200 1400>
LayerCount: 2
Fore
SplineSet
100 200 m 1xe0
 100 1200 l 1
 300 1200 l 1
 300 200 l 1
 100 200 l 1xe0
300 0 m 1xd0
 300 200 l 1xe0
 900 200 l 1
 900 0 l 1
 300 0 l 1xd0
300 1200 m 1
 300 1400 l 1
 900 1400 l 1
 900 1200 l 1xd0
 300 1200 l 1
900 200 m 1
 900 1200 l 1xd0
 1100 1200 l 1
 1100 200 l 1xc8
 900 200 l 1
EndSplineSet
EndChar

StartChar: P
Encoding: 80 80 49
Width: 1200
VWidth: 2000
GlyphClass: 1
Flags: HMW
HStem: 0 42G<100 100 100 300> 600 200<300 900 300 900> 1200 200<300 900 300 300 100 1100>
VStem: 100 200<0 600 800 1200> 900 200<600 1200 800 1200 800 1200 800 1400 800 1200>
LayerCount: 2
Fore
SplineSet
100 0 m 1
 100 1400 l 1
 900 1400 l 1
 900 1200 l 1
 300 1200 l 1
 300 800 l 1
 900 800 l 1
 900 600 l 1
 300 600 l 1
 300 0 l 1
 100 0 l 1
900 800 m 1
 900 1200 l 1
 1100 1200 l 1
 1100 800 l 1
 900 800 l 1
EndSplineSet
EndChar

StartChar: Q
Encoding: 81 81 50
Width: 1400
VWidth: 2000
GlyphClass: 1
Flags: HMW
HStem: 0 200<300 900> 1200 200<100 900 300 900 300 900 300 900 300 1100>
VStem: 100 200<200 1200> 900 200<200 1200> 1100 200<-200 0 0 0 -200 1200 -200 200>
LayerCount: 2
Fore
SplineSet
100 200 m 1xe0
 100 1200 l 1
 300 1200 l 1
 300 200 l 1
 100 200 l 1xe0
300 0 m 1
 300 200 l 1
 900 200 l 1
 900 1200 l 1
 300 1200 l 1
 300 1400 l 1
 900 1400 l 1
 900 1200 l 1
 1100 1200 l 1
 1100 200 l 1xf0
 1300 200 l 1
 1300 -200 l 1
 1100 -200 l 1
 1100 0 l 1xe8
 300 0 l 1
EndSplineSet
EndChar

StartChar: R
Encoding: 82 82 51
Width: 1200
VWidth: 2000
GlyphClass: 1
Flags: HMW
HStem: 0 42G<100 100 100 300 900 900 900 1100> 600 200<300 700 300 900> 1200 200<300 900 300 300 100 1100>
VStem: 100 200<0 600 800 1200> 700 200<400 600 600 600> 900 200<0 400 0 400 0 800 0 400 800 1200>
LayerCount: 2
Fore
SplineSet
100 0 m 1xf8
 100 1400 l 1
 900 1400 l 1
 900 1200 l 1
 300 1200 l 1
 300 800 l 1
 900 800 l 1xf4
 900 400 l 1xf8
 1100 400 l 1
 1100 0 l 1
 900 0 l 1xf4
 900 400 l 1
 700 400 l 1
 700 600 l 1
 300 600 l 1
 300 0 l 1
 100 0 l 1xf8
900 800 m 1
 900 1200 l 1
 1100 1200 l 1
 1100 800 l 1
 900 800 l 1
EndSplineSet
EndChar

StartChar: S
Encoding: 83 83 52
Width: 1200
VWidth: 2000
GlyphClass: 1
Flags: HMW
HStem: 0 200<300 900> 200 200<100 300 100 300 100 900> 600 200<300 900> 1000 200<900 1100> 1200 200<100 900 300 900 300 900 300 900 300 1100>
VStem: 100 200<200 400 800 1200> 300 600<0 200 0 200 200 400 0 200 600 800 1000 1200 1200 1400> 900 200<0 600 200 600 200 600 200 600 200 800 1000 1200>
LayerCount: 2
Fore
SplineSet
100 200 m 1x64
 100 400 l 1
 300 400 l 1x64
 300 200 l 1xa4
 100 200 l 1x64
100 800 m 1
 100 1200 l 1
 300 1200 l 1x2c
 300 800 l 1
 100 800 l 1
300 0 m 1xa2
 300 200 l 1xa4
 900 200 l 1
 900 0 l 1
 300 0 l 1xa2
300 600 m 1x22
 300 800 l 1x24
 900 800 l 1
 900 600 l 1
 300 600 l 1x22
300 1200 m 1x2c
 300 1400 l 1
 900 1400 l 1x2a
 900 1200 l 1x32
 300 1200 l 1x2c
900 200 m 1xa2
 900 600 l 1xa2
 1100 600 l 1
 1100 200 l 1x61
 900 200 l 1xa2
900 1000 m 1x31
 900 1200 l 1x32
 1100 1200 l 1
 1100 1000 l 1
 900 1000 l 1x31
EndSplineSet
EndChar

StartChar: T
Encoding: 84 84 53
Width: 1200
VWidth: 2000
GlyphClass: 1
Flags: HMW
HStem: 0 42G<500 700 500 500> 1200 200<100 1100 100 500 700 700 700 1100>
VStem: 500 200<0 1200 0 1200>
LayerCount: 2
Fore
SplineSet
100 1200 m 1
 100 1400 l 1
 1100 1400 l 1
 1100 1200 l 1
 700 1200 l 1
 700 0 l 1
 500 0 l 1
 500 1200 l 1
 100 1200 l 1
EndSplineSet
EndChar

StartChar: U
Encoding: 85 85 54
Width: 1200
VWidth: 2000
GlyphClass: 1
Flags: HMW
HStem: 0 200<300 900> 1360 40G<100 300 300 300 900 1100 1100 1100>
VStem: 100 200<200 1400> 900 200<0 1400 200 1400 200 1400>
LayerCount: 2
Fore
SplineSet
100 200 m 1
 100 1400 l 1
 300 1400 l 1
 300 200 l 1
 100 200 l 1
300 0 m 1
 300 200 l 1
 900 200 l 1
 900 0 l 1
 300 0 l 1
900 200 m 1
 900 1400 l 1
 1100 1400 l 1
 1100 200 l 1
 900 200 l 1
EndSplineSet
EndChar

StartChar: V
Encoding: 86 86 55
Width: 1200
VWidth: 2000
GlyphClass: 1
Flags: HMW
HStem: 0 42G<500 500 500 700> 400 400<100 300 300 500 700 900> 800 600<100 300 100 300 100 500 100 500 100 900 900 1100>
VStem: 100 200<800 1400> 300 200<400 800> 500 200<0 400 0 400 400 800 0 400> 700 200<0 800 400 800 400 800> 900 200<400 1400 800 1400 800 1400>
LayerCount: 2
Fore
SplineSet
100 800 m 1xb0
 100 1400 l 1
 300 1400 l 1xb0
 300 800 l 1xd0
 100 800 l 1xb0
300 400 m 1xc8
 300 800 l 1xd0
 500 800 l 1
 500 400 l 1
 300 400 l 1xc8
500 0 m 1xc4
 500 400 l 1xc8
 700 400 l 1xc4
 700 800 l 1
 900 800 l 1
 900 400 l 1xc2
 700 400 l 1
 700 0 l 1
 500 0 l 1xc4
900 800 m 1xc2
 900 1400 l 1
 1100 1400 l 1
 1100 800 l 1xa1
 900 800 l 1xc2
EndSplineSet
EndChar

StartChar: W
Encoding: 87 87 56
Width: 2000
VWidth: 2000
GlyphClass: 1
Flags: HMW
HStem: 0 400<500 700 300 500 1300 1500> 400 400<300 500 100 300 700 900 1100 1300 1500 1700> 800 600<100 300 100 300 100 500 100 500 100 900 900 1100 1700 1900>
VStem: 100 200<800 1400> 300 200<400 800> 500 200<0 400 0 400 400 800 0 400> 700 200<0 800 400 800 400 800> 900 200<400 800 400 800 800 1400> 1100 200<400 800> 1300 200<0 400 0 400 400 800 0 400> 1500 200<0 800 400 800 400 800> 1700 200<400 1400 800 1400 800 1400>
LayerCount: 2
Fore
SplineSet
100 800 m 1x30
 100 1400 l 1
 300 1400 l 1x30
 300 800 l 1x50
 500 800 l 1x48
 500 400 l 1x88
 700 400 l 1
 700 0 l 1
 500 0 l 1x84
 500 400 l 1x88
 300 400 l 1x48
 300 800 l 1x50
 100 800 l 1x30
700 400 m 1x84
 700 800 l 1
 900 800 l 1
 900 400 l 1x42
 700 400 l 1x84
900 800 m 1
 900 1400 l 1
 1100 1400 l 1x21
 1100 800 l 1x41
 900 800 l 1
1100 400 m 1x4080
 1100 800 l 1x41
 1300 800 l 1x4080
 1300 400 l 1x8080
 1100 400 l 1x4080
1300 0 m 1x8040
 1300 400 l 1x8080
 1500 400 l 1x8040
 1500 800 l 1
 1700 800 l 1
 1700 400 l 1x4020
 1500 400 l 1
 1500 0 l 1
 1300 0 l 1x8040
1700 800 m 1x4020
 1700 1400 l 1
 1900 1400 l 1
 1900 800 l 1x2010
 1700 800 l 1x4020
EndSplineSet
EndChar

StartChar: X
Encoding: 88 88 57
Width: 1200
VWidth: 2000
GlyphClass: 1
Flags: HMW
HStem: 0 400<100 300 100 300 900 1100> 400 200<100 500 300 500 300 500 300 500 700 900> 600 200<300 500 500 700 300 500 300 500 700 900> 800 200<300 500 700 900> 1000 400<100 300 100 300 100 500 100 500 900 1100>
VStem: 100 200<0 400 0 400 1000 1400> 300 200<0 600 400 600 400 600 800 1000> 500 200<400 600 400 600 600 800 800 1000> 700 200<400 600 800 1000> 900 200<0 400 0 400 0 600 0 400 1000 1400>
LayerCount: 2
Fore
SplineSet
100 0 m 1x84
 100 400 l 1
 300 400 l 1
 300 0 l 1
 100 0 l 1x84
100 1000 m 1x0c
 100 1400 l 1
 300 1400 l 1x0c
 300 1000 l 1x14
 500 1000 l 1x12
 500 800 l 1x22
 300 800 l 1x12
 300 1000 l 1x14
 100 1000 l 1x0c
300 400 m 1x84
 300 600 l 1
 500 600 l 1
 500 400 l 1x42
 300 400 l 1x84
500 600 m 1
 500 800 l 1x22
 700 800 l 1x21
 700 600 l 1x41
 500 600 l 1
700 400 m 1x4080
 700 600 l 1x41
 900 600 l 1x4080
 900 400 l 1x8080
 700 400 l 1x4080
700 800 m 1x21
 700 1000 l 1
 900 1000 l 1
 900 800 l 1x1080
 700 800 l 1x21
900 0 m 1x8040
 900 400 l 1x8080
 1100 400 l 1
 1100 0 l 1
 900 0 l 1x8040
900 1000 m 1x1080
 900 1400 l 1
 1100 1400 l 1
 1100 1000 l 1x0840
 900 1000 l 1x1080
EndSplineSet
EndChar

StartChar: Y
Encoding: 89 89 58
Width: 1200
VWidth: 2000
GlyphClass: 1
Flags: HMW
HStem: 0 42G<500 500 500 700> 600 400<100 300 300 500 700 900> 1000 400<100 300 100 300 100 500 100 500 900 1100>
VStem: 100 200<1000 1400> 300 200<600 1000> 500 200<0 600 0 600 600 1000 0 600> 700 200<0 1000 600 1000 600 1000> 900 200<600 1400 1000 1400 1000 1400>
LayerCount: 2
Fore
SplineSet
100 1000 m 1xb0
 100 1400 l 1
 300 1400 l 1xb0
 300 1000 l 1xd0
 100 1000 l 1xb0
300 600 m 1xc8
 300 1000 l 1xd0
 500 1000 l 1
 500 600 l 1
 300 600 l 1xc8
500 0 m 1xc4
 500 600 l 1xc8
 700 600 l 1xc4
 700 1000 l 1
 900 1000 l 1
 900 600 l 1xc2
 700 600 l 1
 700 0 l 1
 500 0 l 1xc4
900 1000 m 1xc2
 900 1400 l 1
 1100 1400 l 1
 1100 1000 l 1xa1
 900 1000 l 1xc2
EndSplineSet
EndChar

StartChar: Z
Encoding: 90 90 59
Width: 1200
VWidth: 2000
GlyphClass: 1
Flags: HMW
HStem: 0 200<300 1100 300 1100> 400 200<100 500 300 500 300 500 300 500> 600 200<300 700 500 700 500 700 500 700> 800 200<500 900 700 900 700 900 700 900> 1000 42G<700 900 900 900 900 1100 900 900> 1200 200<100 1100 100 900>
VStem: 100 200<200 400 200 400 200 400> 300 200<200 600 400 600 400 600> 500 200<400 800 600 800 600 800> 700 200<600 1000 800 1000 800 1000> 900 200<1000 1200 1200 1200>
LayerCount: 2
Fore
SplineSet
100 0 m 1xc620
 100 400 l 1
 300 400 l 1
 300 200 l 1
 1100 200 l 1
 1100 0 l 1
 100 0 l 1xc620
100 1200 m 1
 100 1400 l 1
 1100 1400 l 1
 1100 1000 l 1x8e20
 900 1000 l 1x9440
 900 1200 l 1
 100 1200 l 1
300 400 m 1xc6
 300 600 l 1
 500 600 l 1
 500 400 l 1xc5
 300 400 l 1xc6
500 600 m 1
 500 800 l 1
 700 800 l 1
 700 600 l 1xa480
 500 600 l 1
700 800 m 1
 700 1000 l 1
 900 1000 l 1
 900 800 l 1x9440
 700 800 l 1
EndSplineSet
EndChar

StartChar: bracketleft
Encoding: 91 91 60
Width: 600
VWidth: 2000
GlyphClass: 1
Flags: HMW
HStem: 0 200<300 500 300 500> 1200 200<300 500 300 300>
VStem: 100 200<200 1200 200 1400> 100 400<0 200 1200 1400>
LayerCount: 2
Fore
SplineSet
100 0 m 1xd0
 100 1400 l 1
 500 1400 l 1
 500 1200 l 1xd0
 300 1200 l 1
 300 200 l 1xe0
 500 200 l 1
 500 0 l 1
 100 0 l 1xd0
EndSplineSet
EndChar

StartChar: backslash
Encoding: 92 92 61
Width: 1600
VWidth: 2000
GlyphClass: 1
Flags: HMW
HStem: 0 200<1300 1500> 200 200<1100 1300> 400 200<900 1100> 600 200<700 900> 800 200<500 700> 1000 200<300 500> 1200 200<100 300 100 300 100 500>
VStem: 100 200<1200 1400> 300 200<1000 1200> 500 200<800 1000> 700 200<600 800> 900 200<400 600> 1100 200<200 400> 1300 200<0 200 0 200 0 400 0 200>
LayerCount: 2
Fore
SplineSet
100 1200 m 1x03
 100 1400 l 1
 300 1400 l 1x03
 300 1200 l 1x05
 100 1200 l 1x03
300 1000 m 1x0480
 300 1200 l 1x05
 500 1200 l 1x0480
 500 1000 l 1x0880
 300 1000 l 1x0480
500 800 m 1x0840
 500 1000 l 1x0880
 700 1000 l 1x0840
 700 800 l 1x1040
 500 800 l 1x0840
700 600 m 1x1020
 700 800 l 1x1040
 900 800 l 1x1020
 900 600 l 1x2020
 700 600 l 1x1020
900 400 m 1x2010
 900 600 l 1x2020
 1100 600 l 1x2010
 1100 400 l 1x4010
 900 400 l 1x2010
1100 200 m 1x4008
 1100 400 l 1x4010
 1300 400 l 1x4008
 1300 200 l 1x8008
 1100 200 l 1x4008
1300 0 m 1x8004
 1300 200 l 1x8008
 1500 200 l 1
 1500 0 l 1
 1300 0 l 1x8004
EndSplineSet
EndChar

StartChar: bracketright
Encoding: 93 93 62
Width: 600
VWidth: 2000
GlyphClass: 1
Flags: HMW
HStem: 0 200<100 300 100 300 100 500> 1200 200<100 300 100 500>
VStem: 100 400<0 200 200 200 1200 1400 0 1400> 300 200<200 1200 1200 1200>
LayerCount: 2
Fore
SplineSet
100 0 m 1xe0
 100 200 l 1xe0
 300 200 l 1
 300 1200 l 1xd0
 100 1200 l 1
 100 1400 l 1
 500 1400 l 1
 500 0 l 1
 100 0 l 1xe0
EndSplineSet
EndChar

StartChar: asciicircum
Encoding: 94 94 63
Width: 1200
VWidth: 2000
GlyphClass: 1
Flags: HMW
HStem: 800 200<100 300 100 300 900 1100> 1000 200<100 500 300 500 300 500 300 500 700 900> 1200 200<300 700 500 700 500 700 500 700 500 900>
VStem: 100 200<800 1000 800 1000> 300 200<800 1200 1000 1200 1000 1200> 500 200<1000 1200 1000 1200 1200 1400> 700 200<1000 1200> 900 200<800 1000 800 1000 800 1200 800 1000>
LayerCount: 2
Fore
SplineSet
100 800 m 1x90
 100 1000 l 1
 300 1000 l 1
 300 800 l 1
 100 800 l 1x90
300 1000 m 1
 300 1200 l 1
 500 1200 l 1
 500 1000 l 1x48
 300 1000 l 1
500 1200 m 1
 500 1400 l 1
 700 1400 l 1x24
 700 1200 l 1x44
 500 1200 l 1
700 1000 m 1x42
 700 1200 l 1x44
 900 1200 l 1x42
 900 1000 l 1x82
 700 1000 l 1x42
900 800 m 1x81
 900 1000 l 1x82
 1100 1000 l 1
 1100 800 l 1
 900 800 l 1x81
EndSplineSet
EndChar

StartChar: underscore
Encoding: 95 95 64
Width: 1200
VWidth: 2000
GlyphClass: 1
Flags: HMW
HStem: -200 200<100 1100 100 1100>
LayerCount: 2
Fore
SplineSet
100 0 m 1
 1100 0 l 1
 1100 -200 l 1
 100 -200 l 1
 100 0 l 1
EndSplineSet
EndChar

StartChar: grave
Encoding: 96 96 65
Width: 600
VWidth: 2000
GlyphClass: 1
Flags: HMW
HStem: 1000 200<300 500> 1200 200<100 300 100 300 100 500>
VStem: 100 200<1200 1400> 300 200<1000 1200 1000 1200 1000 1400 1000 1200>
LayerCount: 2
Fore
SplineSet
100 1200 m 1x60
 100 1400 l 1
 300 1400 l 1x60
 300 1200 l 1xa0
 100 1200 l 1x60
300 1000 m 1x90
 300 1200 l 1xa0
 500 1200 l 1
 500 1000 l 1
 300 1000 l 1x90
EndSplineSet
EndChar

StartChar: a
Encoding: 97 97 66
Width: 1200
VWidth: 2000
GlyphClass: 1
Flags: HMW
HStem: 0 200<300 700> 200 200<300 900 700 900 700 900 700 900> 800 200<100 900 300 900 300 900 300 900 300 1100>
VStem: 100 200<200 800> 900 200<0 200 200 200 400 800 0 800 0 1000 0 800>
LayerCount: 2
Fore
SplineSet
100 200 m 1x78
 100 800 l 1
 300 800 l 1
 300 1000 l 1
 900 1000 l 1
 900 800 l 1
 300 800 l 1
 300 200 l 1
 700 200 l 1
 700 0 l 1
 300 0 l 1
 300 200 l 1xb8
 100 200 l 1x78
700 200 m 1
 700 400 l 1
 900 400 l 1x78
 900 800 l 1
 1100 800 l 1
 1100 0 l 1
 900 0 l 1xb8
 900 200 l 1x78
 700 200 l 1
EndSplineSet
EndChar

StartChar: b
Encoding: 98 98 67
Width: 1200
VWidth: 2000
GlyphClass: 1
Flags: HMW
HStem: 0 200<300 900> 800 200<300 900 300 900 300 1100> 1360 40G<100 300 300 300>
VStem: 100 200<200 800 1000 1400> 900 200<0 800 200 800 200 800 200 1000 200 800>
LayerCount: 2
Fore
SplineSet
100 200 m 1
 100 1400 l 1
 300 1400 l 1
 300 1000 l 1
 900 1000 l 1
 900 800 l 1
 300 800 l 1
 300 200 l 1
 900 200 l 1
 900 0 l 1
 300 0 l 1
 300 200 l 1
 100 200 l 1
900 200 m 1
 900 800 l 1
 1100 800 l 1
 1100 200 l 1
 900 200 l 1
EndSplineSet
EndChar

StartChar: c
Encoding: 99 99 68
Width: 1200
VWidth: 2000
GlyphClass: 1
Flags: HMW
HStem: 0 200<300 900> 200 200<300 1100 900 1100 900 1100 900 1100> 600 200<900 1100> 800 200<100 900 300 900 300 900 300 900 300 1100>
VStem: 100 200<200 800> 300 600<0 200 0 200 200 400 600 800 0 200 800 1000> 900 200<0 400 200 400 200 400 600 800>
LayerCount: 2
Fore
SplineSet
100 200 m 1x48
 100 800 l 1
 300 800 l 1
 300 200 l 1x98
 100 200 l 1x48
300 0 m 1x84
 300 200 l 1x88
 900 200 l 1
 900 0 l 1
 300 0 l 1x84
300 800 m 1x18
 300 1000 l 1
 900 1000 l 1x14
 900 800 l 1x24
 300 800 l 1x18
900 200 m 1x84
 900 400 l 1
 1100 400 l 1
 1100 200 l 1x42
 900 200 l 1x84
900 600 m 1x22
 900 800 l 1x24
 1100 800 l 1
 1100 600 l 1
 900 600 l 1x22
EndSplineSet
EndChar

StartChar: d
Encoding: 100 100 69
Width: 1200
VWidth: 2000
GlyphClass: 1
Flags: HMW
HStem: 0 200<300 900> 800 200<100 900 300 900 300 900 300 900> 1360 40G<900 1100 1100 1100>
VStem: 100 200<200 800> 900 200<0 1400 200 800 800 800 1000 1400 200 1400>
LayerCount: 2
Fore
SplineSet
100 200 m 1
 100 800 l 1
 300 800 l 1
 300 200 l 1
 100 200 l 1
300 0 m 1
 300 200 l 1
 900 200 l 1
 900 800 l 1
 300 800 l 1
 300 1000 l 1
 900 1000 l 1
 900 1400 l 1
 1100 1400 l 1
 1100 200 l 1
 900 200 l 1
 900 0 l 1
 300 0 l 1
EndSplineSet
EndChar

StartChar: e
Encoding: 101 101 70
Width: 1200
VWidth: 2000
GlyphClass: 1
Flags: HMW
HStem: 0 200<300 1100> 400 200<300 900 300 900> 600 200<300 900 900 1100> 800 200<100 900 300 900 300 900 300 900 300 1100>
VStem: 100 200<200 400 600 800> 900 200<600 800>
LayerCount: 2
Fore
SplineSet
100 200 m 1xcc
 100 800 l 1
 300 800 l 1
 300 1000 l 1
 900 1000 l 1xdc
 900 800 l 1
 1100 800 l 1
 1100 600 l 1xac
 900 600 l 1
 900 400 l 1
 300 400 l 1
 300 200 l 1
 1100 200 l 1
 1100 0 l 1
 300 0 l 1
 300 200 l 1
 100 200 l 1xcc
300 600 m 1
 900 600 l 1xdc
 900 800 l 1xac
 300 800 l 1
 300 600 l 1
EndSplineSet
EndChar

StartChar: f
Encoding: 102 102 71
Width: 1000
VWidth: 2000
GlyphClass: 1
Flags: HMW
HStem: 0 42G<300 500 300 300> 600 200<100 300 100 300 500 900> 1200 200<300 900 500 900 500 900 500 900>
VStem: 300 200<0 600 0 600 800 1200>
LayerCount: 2
Fore
SplineSet
100 600 m 1
 100 800 l 1
 300 800 l 1
 300 1200 l 1
 500 1200 l 1
 500 1400 l 1
 900 1400 l 1
 900 1200 l 1
 500 1200 l 1
 500 800 l 1
 900 800 l 1
 900 600 l 1
 500 600 l 1
 500 0 l 1
 300 0 l 1
 300 600 l 1
 100 600 l 1
EndSplineSet
EndChar

StartChar: g
Encoding: 103 103 72
Width: 1200
VWidth: 2000
GlyphClass: 1
Flags: HMW
HStem: -600 200<300 900 100 300> -400 200<100 300 100 300 100 900> 0 200<300 900> 800 200<100 900 300 900 300 900 300 900 300 1100>
VStem: 100 200<-400 -200 200 800> 300 600<-600 -400 -600 -400 -400 -200 -600 -400 -600 200 200 800 800 1000> 900 200<-600 800 -400 0 0 0 200 800 -400 800 -400 1000 -400 800>
LayerCount: 2
Fore
SplineSet
100 200 m 1xb8
 100 800 l 1
 300 800 l 1xb8
 300 1000 l 1
 900 1000 l 1
 900 800 l 1xb4
 1100 800 l 1
 1100 -400 l 1x72
 900 -400 l 1xb4
 900 0 l 1xb2
 300 0 l 1xb4
 300 200 l 1
 900 200 l 1xba
 900 800 l 1xb4
 300 800 l 1
 300 200 l 1
 100 200 l 1xb8
100 -200 m 1x78
 300 -200 l 1x78
 300 -400 l 1xb8
 900 -400 l 1
 900 -600 l 1
 300 -600 l 1xb4
 300 -400 l 1xb8
 100 -400 l 1
 100 -200 l 1x78
EndSplineSet
EndChar

StartChar: h
Encoding: 104 104 73
Width: 1200
VWidth: 2000
GlyphClass: 1
Flags: HMW
HStem: 0 42G<100 100 100 300 900 900 900 1100> 600 200<300 500 300 500> 800 200<300 900 500 900 500 900 500 900 500 1100> 1360 40G<100 300 300 300>
VStem: 100 200<0 600 800 1400> 900 200<0 800 0 800 0 1000 0 800>
LayerCount: 2
Fore
SplineSet
100 0 m 1xdc
 100 1400 l 1
 300 1400 l 1
 300 800 l 1
 500 800 l 1xdc
 500 1000 l 1
 900 1000 l 1
 900 800 l 1
 1100 800 l 1
 1100 0 l 1
 900 0 l 1
 900 800 l 1xbc
 500 800 l 1
 500 600 l 1
 300 600 l 1
 300 0 l 1
 100 0 l 1xdc
EndSplineSet
EndChar

StartChar: i
Encoding: 105 105 74
Width: 400
VWidth: 2000
GlyphClass: 1
Flags: HMW
HStem: 0 42G<100 100 100 300> 960 40G<100 300 300 300> 1200 200<100 300 100 300>
VStem: 100 200<0 1000 0 1000 1200 1400>
LayerCount: 2
Fore
SplineSet
100 0 m 1
 100 1000 l 1
 300 1000 l 1
 300 0 l 1
 100 0 l 1
100 1200 m 1
 100 1400 l 1
 300 1400 l 1
 300 1200 l 1
 100 1200 l 1
EndSplineSet
EndChar

StartChar: j
Encoding: 106 106 75
Width: 600
VWidth: 2000
GlyphClass: 1
Flags: HMW
HStem: -200 200<100 300 100 500 100 300> 960 40G<300 500 500 500> 1200 200<300 500 300 500>
VStem: 300 200<0 1000 1200 1400>
LayerCount: 2
Fore
SplineSet
100 0 m 1
 300 0 l 1
 300 1000 l 1
 500 1000 l 1
 500 0 l 1
 500 -200 l 1
 100 -200 l 1
 100 0 l 1
300 1200 m 1
 300 1400 l 1
 500 1400 l 1
 500 1200 l 1
 300 1200 l 1
EndSplineSet
EndChar

StartChar: k
Encoding: 107 107 76
Width: 1000
VWidth: 2000
GlyphClass: 1
Flags: HMW
HStem: 0 200<700 900 500 700> 200 200<500 700 300 500> 400 200<300 500 300 500 500 700> 600 200<300 700 500 700 500 700 500 700> 800 200<500 900 700 900 700 900 700 900> 1360 40G<100 300 300 300>
VStem: 100 200<0 400 600 1400> 500 200<200 400 600 800> 700 200<0 200 0 200 0 400 0 200 800 1000>
LayerCount: 2
Fore
SplineSet
100 0 m 1xa7
 100 1400 l 1
 300 1400 l 1
 300 600 l 1
 500 600 l 1xa7
 500 400 l 1
 700 400 l 1x47
 700 200 l 1x87
 500 200 l 1
 500 400 l 1x47
 300 400 l 1
 300 0 l 1
 100 0 l 1xa7
500 600 m 1
 500 800 l 1
 700 800 l 1
 700 600 l 1x17
 500 600 l 1
700 0 m 1x8680
 700 200 l 1x87
 900 200 l 1
 900 0 l 1
 700 0 l 1x8680
700 800 m 1x17
 700 1000 l 1
 900 1000 l 1
 900 800 l 1x0e80
 700 800 l 1x17
EndSplineSet
EndChar

StartChar: l
Encoding: 108 108 77
Width: 400
VWidth: 2000
GlyphClass: 1
Flags: HMW
HStem: 0 42G<100 100 100 300> 1360 40G<100 300 300 300>
VStem: 100 200<0 1400 0 1400>
LayerCount: 2
Fore
SplineSet
100 0 m 1
 100 1400 l 1
 300 1400 l 1
 300 0 l 1
 100 0 l 1
EndSplineSet
EndChar

StartChar: m
Encoding: 109 109 78
Width: 1800
VWidth: 2000
GlyphClass: 1
Flags: HMW
HStem: 0 42G<100 100 100 300 900 900 900 1100 1500 1700 1500 1500> 600 200<300 500 300 500> 800 200<100 500 500 900 1100 1500>
VStem: 100 200<0 600 800 1000> 900 200<0 800 0 800 800 1000 0 800> 1500 200<0 800 0 800 0 1000 0 800>
LayerCount: 2
Fore
SplineSet
100 0 m 1xdc
 100 1000 l 1
 300 1000 l 1xbc
 300 800 l 1
 500 800 l 1xdc
 500 1000 l 1
 900 1000 l 1
 900 800 l 1
 1100 800 l 1
 1100 0 l 1
 900 0 l 1
 900 800 l 1xbc
 500 800 l 1
 500 600 l 1
 300 600 l 1
 300 0 l 1
 100 0 l 1xdc
1100 800 m 1
 1100 1000 l 1
 1500 1000 l 1
 1500 800 l 1
 1100 800 l 1
1500 0 m 1
 1500 800 l 1
 1700 800 l 1
 1700 0 l 1
 1500 0 l 1
EndSplineSet
EndChar

StartChar: n
Encoding: 110 110 79
Width: 1200
VWidth: 2000
GlyphClass: 1
Flags: HMW
HStem: 0 42G<100 100 100 300 900 900 900 1100> 600 200<300 500 300 500> 800 200<100 500 500 900>
VStem: 100 200<0 600 800 1000> 900 200<0 800 0 800 0 1000 0 800>
LayerCount: 2
Fore
SplineSet
100 0 m 1xd8
 100 1000 l 1
 300 1000 l 1xb8
 300 800 l 1
 500 800 l 1xd8
 500 1000 l 1
 900 1000 l 1
 900 800 l 1
 1100 800 l 1
 1100 0 l 1
 900 0 l 1
 900 800 l 1xb8
 500 800 l 1
 500 600 l 1
 300 600 l 1
 300 0 l 1
 100 0 l 1xd8
EndSplineSet
EndChar

StartChar: o
Encoding: 111 111 80
Width: 1200
VWidth: 2000
GlyphClass: 1
Flags: HMW
HStem: 0 200<300 900> 200 600<100 300 100 300 300 900 900 1100> 800 200<100 900 300 900 300 900 300 900 300 1100>
VStem: 100 200<200 800> 300 600<0 200 0 200 200 800 0 200 800 1000> 900 200<0 800 200 800 200 800 200 800 200 1000>
LayerCount: 2
Fore
SplineSet
100 200 m 1x50
 100 800 l 1
 300 800 l 1x50
 300 200 l 1x90
 100 200 l 1x50
300 0 m 1x88
 300 200 l 1x90
 900 200 l 1
 900 0 l 1
 300 0 l 1x88
300 800 m 1x50
 300 1000 l 1
 900 1000 l 1x28
 900 800 l 1x48
 300 800 l 1x50
900 200 m 1x88
 900 800 l 1x48
 1100 800 l 1
 1100 200 l 1x44
 900 200 l 1x88
EndSplineSet
EndChar

StartChar: p
Encoding: 112 112 81
Width: 1200
VWidth: 2000
GlyphClass: 1
Flags: HMW
HStem: -400 42G<100 100 100 300> 0 200<300 900 300 900> 800 200<100 900 300 900 300 900 300 900 300 1100>
VStem: 100 200<-400 0 200 800> 900 200<0 800 200 800 200 800 200 1000 200 800>
LayerCount: 2
Fore
SplineSet
100 -400 m 1
 100 800 l 1
 300 800 l 1
 300 1000 l 1
 900 1000 l 1
 900 800 l 1
 300 800 l 1
 300 200 l 1
 900 200 l 1
 900 0 l 1
 300 0 l 1
 300 -400 l 1
 100 -400 l 1
900 200 m 1
 900 800 l 1
 1100 800 l 1
 1100 200 l 1
 900 200 l 1
EndSplineSet
EndChar

StartChar: q
Encoding: 113 113 82
Width: 1200
VWidth: 2000
GlyphClass: 1
Flags: HMW
HStem: -400 42G<900 1100 900 900> 0 200<300 900> 800 200<100 900 300 900 300 900 300 900 300 1100>
VStem: 100 200<200 800> 900 200<-400 0 0 0 200 800 -400 800 -400 1000 -400 800>
LayerCount: 2
Fore
SplineSet
100 200 m 1
 100 800 l 1
 300 800 l 1
 300 200 l 1
 100 200 l 1
300 0 m 1
 300 200 l 1
 900 200 l 1
 900 800 l 1
 300 800 l 1
 300 1000 l 1
 900 1000 l 1
 900 800 l 1
 1100 800 l 1
 1100 -400 l 1
 900 -400 l 1
 900 0 l 1
 300 0 l 1
EndSplineSet
EndChar

StartChar: r
Encoding: 114 114 83
Width: 1000
VWidth: 2000
GlyphClass: 1
Flags: HMW
HStem: 0 42G<100 100 100 300> 600 200<300 500 300 500> 800 200<100 500 500 900>
VStem: 100 200<0 600 800 1000>
LayerCount: 2
Fore
SplineSet
100 0 m 1xd0
 100 1000 l 1
 300 1000 l 1xb0
 300 800 l 1
 500 800 l 1xd0
 500 1000 l 1
 900 1000 l 1
 900 800 l 1xb0
 500 800 l 1
 500 600 l 1
 300 600 l 1
 300 0 l 1
 100 0 l 1xd0
EndSplineSet
EndChar

StartChar: s
Encoding: 115 115 84
Width: 1200
VWidth: 2000
GlyphClass: 1
Flags: HMW
HStem: 0 200<100 900 100 900> 200 200<300 300 300 900 900 1100> 400 200<300 900> 600 200<100 300 100 300 300 900 900 900> 800 200<100 1100 300 1100 300 1100 300 1100>
VStem: 100 200<600 800> 900 200<0 400 200 400 200 400 200 400 200 600>
LayerCount: 2
Fore
SplineSet
100 0 m 1x86
 100 200 l 1
 900 200 l 1
 900 0 l 1
 100 0 l 1x86
100 600 m 1x16
 100 800 l 1
 300 800 l 1x16
 300 600 l 1x26
 100 600 l 1x16
300 400 m 1x26
 300 600 l 1
 900 600 l 1x26
 900 400 l 1x46
 300 400 l 1x26
300 800 m 1x16
 300 1000 l 1
 1100 1000 l 1
 1100 800 l 1x0e
 300 800 l 1x16
900 200 m 1x86
 900 400 l 1
 1100 400 l 1
 1100 200 l 1x46
 900 200 l 1x86
EndSplineSet
EndChar

StartChar: t
Encoding: 116 116 85
Width: 820
VWidth: 2000
GlyphClass: 1
Flags: HMW
HStem: 0 42G<300 500 300 300> 800 200<100 300 100 300 500 720> 1360 40G<300 500 500 500>
VStem: 300 200<0 800 0 800 1000 1400>
LayerCount: 2
Fore
SplineSet
100 800 m 1
 100 1000 l 1
 300 1000 l 1
 300 1400 l 1
 500 1400 l 1
 500 1000 l 1
 720 1000 l 1
 720 800 l 1
 500 800 l 1
 500 0 l 1
 300 0 l 1
 300 800 l 1
 100 800 l 1
EndSplineSet
EndChar

StartChar: u
Encoding: 117 117 86
Width: 1200
VWidth: 2000
GlyphClass: 1
Flags: HMW
HStem: 0 200<300 700> 200 200<300 900 700 900 700 900 700 900> 960 40G<100 300 300 300 900 1100 1100 1100>
VStem: 100 200<200 1000> 900 200<0 200 200 200 400 1000 0 1000>
LayerCount: 2
Fore
SplineSet
100 200 m 1x78
 100 1000 l 1
 300 1000 l 1
 300 200 l 1
 700 200 l 1xb8
 700 400 l 1
 900 400 l 1x78
 900 1000 l 1
 1100 1000 l 1
 1100 0 l 1
 900 0 l 1xb8
 900 200 l 1x78
 700 200 l 1
 700 0 l 1
 300 0 l 1
 300 200 l 1xb8
 100 200 l 1x78
EndSplineSet
EndChar

StartChar: v
Encoding: 118 118 87
Width: 1200
VWidth: 2000
GlyphClass: 1
Flags: HMW
HStem: 0 200<500 700> 200 400<100 300 300 500 700 900> 600 400<100 300 100 300 100 500 100 500 900 1100>
VStem: 100 200<600 1000> 300 200<200 600> 500 200<0 200 0 200 200 600 0 200> 700 200<0 600 200 600 200 600> 900 200<200 1000 600 1000 600 1000>
LayerCount: 2
Fore
SplineSet
100 600 m 1x30
 100 1000 l 1
 300 1000 l 1x30
 300 600 l 1x50
 100 600 l 1x30
300 200 m 1x48
 300 600 l 1x50
 500 600 l 1x48
 500 200 l 1x88
 300 200 l 1x48
500 0 m 1x84
 500 200 l 1x88
 700 200 l 1x84
 700 600 l 1
 900 600 l 1
 900 200 l 1x42
 700 200 l 1
 700 0 l 1
 500 0 l 1x84
900 600 m 1x42
 900 1000 l 1
 1100 1000 l 1
 1100 600 l 1x21
 900 600 l 1x42
EndSplineSet
EndChar

StartChar: w
Encoding: 119 119 88
Width: 2000
VWidth: 2000
GlyphClass: 1
Flags: HMW
HStem: 0 200<500 700 300 500 1300 1500> 200 400<300 500 100 300 700 900 1100 1300 1500 1700> 600 400<100 300 100 300 100 500 100 500 900 1100 1700 1900>
VStem: 100 200<600 1000> 300 200<200 600> 500 200<0 200 0 200 200 600 0 200> 700 200<0 600 200 600 200 600> 900 200<200 600 200 600 600 1000> 1100 200<200 600> 1300 200<0 200 0 200 200 600 0 200> 1500 200<0 600 200 600 200 600> 1700 200<200 1000 600 1000 600 1000>
LayerCount: 2
Fore
SplineSet
100 600 m 1x30
 100 1000 l 1
 300 1000 l 1x30
 300 600 l 1x50
 500 600 l 1x48
 500 200 l 1x88
 700 200 l 1
 700 0 l 1
 500 0 l 1x84
 500 200 l 1x88
 300 200 l 1x48
 300 600 l 1x50
 100 600 l 1x30
700 200 m 1x84
 700 600 l 1
 900 600 l 1
 900 200 l 1x42
 700 200 l 1x84
900 600 m 1
 900 1000 l 1
 1100 1000 l 1x21
 1100 600 l 1x41
 900 600 l 1
1100 200 m 1x4080
 1100 600 l 1x41
 1300 600 l 1x4080
 1300 200 l 1x8080
 1100 200 l 1x4080
1300 0 m 1x8040
 1300 200 l 1x8080
 1500 200 l 1x8040
 1500 600 l 1
 1700 600 l 1
 1700 200 l 1x4020
 1500 200 l 1
 1500 0 l 1
 1300 0 l 1x8040
1700 600 m 1x4020
 1700 1000 l 1
 1900 1000 l 1
 1900 600 l 1x2010
 1700 600 l 1x4020
EndSplineSet
EndChar

StartChar: x
Encoding: 120 120 89
Width: 1200
VWidth: 2000
GlyphClass: 1
Flags: HMW
HStem: 0 200<100 300 100 300 900 1100> 200 200<100 500 300 500 300 500 300 500 700 900> 400 200<300 500 500 700 300 500 300 500 700 900> 600 200<300 500 700 900> 800 200<100 300 100 300 100 500 900 1100>
VStem: 100 200<0 200 0 200 800 1000> 300 200<0 400 200 400 200 400 600 800> 500 200<200 400 200 400 400 600 600 800> 700 200<200 400 600 800> 900 200<0 200 0 200 0 400 0 200 800 1000>
LayerCount: 2
Fore
SplineSet
100 0 m 1x84
 100 200 l 1
 300 200 l 1
 300 0 l 1
 100 0 l 1x84
100 800 m 1x0c
 100 1000 l 1
 300 1000 l 1x0c
 300 800 l 1x14
 500 800 l 1x12
 500 600 l 1x22
 300 600 l 1x12
 300 800 l 1x14
 100 800 l 1x0c
300 200 m 1x84
 300 400 l 1
 500 400 l 1
 500 200 l 1x42
 300 200 l 1x84
500 400 m 1
 500 600 l 1x22
 700 600 l 1x21
 700 400 l 1x41
 500 400 l 1
700 200 m 1x4080
 700 400 l 1x41
 900 400 l 1x4080
 900 200 l 1x8080
 700 200 l 1x4080
700 600 m 1x21
 700 800 l 1
 900 800 l 1
 900 600 l 1x1080
 700 600 l 1x21
900 0 m 1x8040
 900 200 l 1x8080
 1100 200 l 1
 1100 0 l 1
 900 0 l 1x8040
900 800 m 1x1080
 900 1000 l 1
 1100 1000 l 1
 1100 800 l 1x0840
 900 800 l 1x1080
EndSplineSet
EndChar

StartChar: y
Encoding: 121 121 90
Width: 1200
VWidth: 2000
GlyphClass: 1
Flags: HMW
HStem: -600 200<300 900 100 300> -400 200<100 300 100 300 100 900> 0 200<300 700> 200 200<300 900 700 900 700 900 700 900> 960 40G<100 300 300 300 900 1100 1100 1100>
VStem: 100 200<-400 -200 200 1000> 900 200<-600 1000 -400 200 200 200 400 1000 -400 1000>
LayerCount: 2
Fore
SplineSet
100 200 m 1x1e
 100 1000 l 1
 300 1000 l 1
 300 200 l 1x2e
 100 200 l 1x1e
100 -200 m 1x4e
 300 -200 l 1x4e
 300 -400 l 1x8e
 100 -400 l 1
 100 -200 l 1x4e
300 0 m 1x2e
 300 200 l 1
 700 200 l 1
 700 0 l 1
 300 0 l 1x2e
300 -400 m 1x8e
 900 -400 l 1
 900 -600 l 1
 300 -600 l 1
 300 -400 l 1x8e
700 200 m 1x2e
 700 400 l 1
 900 400 l 1
 900 1000 l 1
 1100 1000 l 1
 1100 -400 l 1x5e
 900 -400 l 1
 900 200 l 1x9e
 700 200 l 1x2e
EndSplineSet
EndChar

StartChar: z
Encoding: 122 122 91
Width: 1200
VWidth: 2000
GlyphClass: 1
Flags: HMW
HStem: 0 200<100 300 100 300 500 1100> 400 200<300 700 500 700 500 700 500 700> 800 200<100 1100 100 700 900 900 900 1100>
VStem: 300 200<200 400 200 400> 500 200<200 600 400 600 400 600>
CounterMasks: 1 e0
LayerCount: 2
Fore
SplineSet
100 0 m 1xf0
 100 200 l 1
 300 200 l 1
 300 400 l 1
 500 400 l 1xf0
 500 600 l 1
 700 600 l 1
 700 400 l 1xe8
 500 400 l 1
 500 200 l 1
 1100 200 l 1
 1100 0 l 1
 100 0 l 1xf0
100 800 m 1
 100 1000 l 1
 1100 1000 l 1
 1100 800 l 1
 900 800 l 1
 900 600 l 1
 700 600 l 1
 700 800 l 1xe8
 100 800 l 1
EndSplineSet
EndChar

StartChar: braceleft
Encoding: 123 123 92
Width: 800
VWidth: 2000
GlyphClass: 1
Flags: HMW
HStem: 0 200<500 700 500 700> 600 200<100 300 100 300> 1200 200<500 700 500 500>
VStem: 300 200<200 600 600 600 800 1200 200 1400> 300 400<0 200 0 600 1200 1400>
CounterMasks: 1 e0
LayerCount: 2
Fore
SplineSet
100 600 m 1xf0
 100 800 l 1
 300 800 l 1xf0
 300 1400 l 1
 700 1400 l 1
 700 1200 l 1xe8
 500 1200 l 1
 500 200 l 1xf0
 700 200 l 1
 700 0 l 1
 300 0 l 1xe8
 300 600 l 1
 100 600 l 1xf0
EndSplineSet
EndChar

StartChar: bar
Encoding: 124 124 93
Width: 400
VWidth: 2000
GlyphClass: 1
Flags: HMW
HStem: 1360 40G<100 300 300 300>
VStem: 100 200<-200 1400 -200 1400>
LayerCount: 2
Fore
SplineSet
100 -200 m 1
 100 1400 l 1
 300 1400 l 1
 300 -200 l 1
 100 -200 l 1
EndSplineSet
EndChar

StartChar: braceright
Encoding: 125 125 94
Width: 800
VWidth: 2000
GlyphClass: 1
Flags: HMW
HStem: 0 200<100 300 100 300 100 500> 600 200<500 700 500 700> 1200 200<100 300 100 500>
VStem: 100 400<0 200 200 200 1200 1400> 300 200<200 600 800 1200 1200 1200>
CounterMasks: 1 e0
LayerCount: 2
Fore
SplineSet
100 0 m 1xf0
 100 200 l 1xf0
 300 200 l 1
 300 1200 l 1xe8
 100 1200 l 1
 100 1400 l 1
 500 1400 l 1xf0
 500 800 l 1
 700 800 l 1
 700 600 l 1
 500 600 l 1xe8
 500 0 l 1
 100 0 l 1xf0
EndSplineSet
EndChar

StartChar: asciitilde
Encoding: 126 126 95
Width: 1000
VWidth: 2000
GlyphClass: 1
Flags: HMW
HStem: 1000 200<500 900> 1200 200<100 500 100 500 100 900>
LayerCount: 2
Fore
SplineSet
100 1200 m 1x40
 100 1400 l 1
 500 1400 l 1x40
 500 1200 l 1
 900 1200 l 1
 900 1000 l 1
 500 1000 l 1
 500 1200 l 1x80
 100 1200 l 1x40
EndSplineSet
EndChar

StartChar: sterling
Encoding: 163 163 96
Width: 1400
VWidth: 2000
GlyphClass: 1
Flags: HMW
HStem: 0 200<100 300 100 300 500 1100> 400 200<100 300 100 300 500 900> 1000 42G<900 1100 900 900> 1200 200<300 1100 500 1100 500 900 500 1100>
VStem: 300 200<200 400 200 400 600 1200> 900 200<200 600 200 400 1000 1200 1200 1200> 1100 200<200 400 0 400>
LayerCount: 2
Fore
SplineSet
100 0 m 1xfa
 100 200 l 1
 300 200 l 1
 300 400 l 1
 100 400 l 1
 100 600 l 1
 300 600 l 1
 300 1200 l 1
 500 1200 l 1
 500 1400 l 1
 1100 1400 l 1xfa
 1100 1000 l 1
 900 1000 l 1
 900 1200 l 1
 500 1200 l 1
 500 600 l 1
 900 600 l 1
 900 400 l 1xfc
 500 400 l 1
 500 200 l 1
 1100 200 l 1
 1100 400 l 1
 1300 400 l 1
 1300 0 l 1
 100 0 l 1xfa
EndSplineSet
EndChar

StartChar: Euro
Encoding: 8364 8364 97
Width: 1200
VWidth: 2000
GlyphClass: 1
Flags: HMW
HStem: 0 200<500 1100 300 500> 400 200<100 300 100 300 500 900> 800 200<100 300 100 300 500 900> 1200 200<300 1100 500 1100 500 1100 500 1100>
VStem: 300 200<200 400 600 800 1000 1200> 500 600<0 200 0 200 0 400 0 200 0 800 0 600 1200 1400>
LayerCount: 2
Fore
SplineSet
100 400 m 1xf8
 100 600 l 1
 300 600 l 1
 300 800 l 1
 100 800 l 1
 100 1000 l 1
 300 1000 l 1
 300 1200 l 1
 500 1200 l 1xf8
 500 1400 l 1
 1100 1400 l 1
 1100 1200 l 1xf4
 500 1200 l 1
 500 1000 l 1
 900 1000 l 1
 900 800 l 1
 500 800 l 1
 500 600 l 1
 900 600 l 1
 900 400 l 1
 500 400 l 1
 500 200 l 1xf8
 1100 200 l 1
 1100 0 l 1
 500 0 l 1xf4
 500 200 l 1
 300 200 l 1
 300 400 l 1
 100 400 l 1xf8
EndSplineSet
EndChar

StartChar: uni20BD
Encoding: 8381 8381 98
Width: 1200
VWidth: 2000
GlyphClass: 1
Flags: HMW
HStem: 0 42G<300 500 300 300> 200 200<100 300 100 300 500 700> 600 200<100 300 100 300 500 900> 1200 200<500 900 500 500 300 1100>
VStem: 300 200<0 200 0 200 400 600 800 1200> 900 200<600 1200 800 1200 800 1200 800 1400 800 1200>
LayerCount: 2
Fore
SplineSet
100 200 m 1
 100 400 l 1
 300 400 l 1
 300 600 l 1
 100 600 l 1
 100 800 l 1
 300 800 l 1
 300 1400 l 1
 900 1400 l 1
 900 1200 l 1
 1100 1200 l 1
 1100 800 l 1
 900 800 l 1
 900 1200 l 1
 500 1200 l 1
 500 800 l 1
 900 800 l 1
 900 600 l 1
 500 600 l 1
 500 400 l 1
 700 400 l 1
 700 200 l 1
 500 200 l 1
 500 0 l 1
 300 0 l 1
 300 200 l 1
 100 200 l 1
EndSplineSet
EndChar

StartChar: BasePixel
Encoding: 57344 57344 99
Width: 400
VWidth: 2000
GlyphClass: 1
Flags: HMW
HStem: 0 200<100 300 100 300>
VStem: 100 200<0 200 0 200>
LayerCount: 2
Fore
SplineSet
100 0 m 1
 100 200 l 1
 300 200 l 1
 300 0 l 1
 100 0 l 1
EndSplineSet
EndChar

StartChar: Line5x1
Encoding: 57345 57345 100
Width: 1200
VWidth: 2000
GlyphClass: 1
Flags: HMW
HStem: 0 200<100 1100 100 1100>
LayerCount: 2
Fore
SplineSet
100 0 m 1
 100 200 l 1
 1100 200 l 1
 1100 0 l 1
 100 0 l 1
EndSplineSet
EndChar

StartChar: Line3x1
Encoding: 57346 57346 101
Width: 800
VWidth: 2000
GlyphClass: 1
Flags: HMW
HStem: 0 200<100 700 100 700>
VStem: 100 600<0 200 0 200>
LayerCount: 2
Fore
SplineSet
100 0 m 1
 100 200 l 1
 700 200 l 1
 700 0 l 1
 100 0 l 1
EndSplineSet
EndChar
